<?xml version="1.0" encoding="utf-8"?>
<!-- Generator: Adobe Illustrator 16.0.0, SVG Export Plug-In . SVG Version: 6.00 Build 0)  -->
<!DOCTYPE svg PUBLIC "-//W3C//DTD SVG 1.1//EN" "http://www.w3.org/Graphics/SVG/1.1/DTD/svg11.dtd">
<svg version="1.1" id="Layer_1" xmlns="http://www.w3.org/2000/svg" xmlns:xlink="http://www.w3.org/1999/xlink" x="0px" y="0px"
	 width="512px" height="512px" viewBox="0 0 512 512" enable-background="new 0 0 512 512" xml:space="preserve">
<path d="M412.392,85.459C399.707,72.91,382.813,66,364.822,66H108.317c-15.959,0-28.459,12.302-28.459,28.006v323.536
	c0,15.691,12.767,28.458,28.459,28.458h256.505c37.119,0,67.319-30.2,67.319-67.324V132.872
	C432.142,114.897,425.127,98.061,412.392,85.459z M414.09,378.676c0,27.169-22.102,49.27-49.268,49.27H108.317
	c-5.74,0-10.407-4.668-10.407-10.403V407.1c0.052,0,0.099,0.007,0.15,0.007h30.656V125.798c0-5.983,4.849-10.832,10.832-10.832
	s10.832,4.849,10.832,10.832v281.309h185.095c29.913,0,54.165-24.247,54.165-54.161V90.729
	c14.609,8.477,24.449,24.189,24.449,42.143V378.676z"/>
</svg>
