<?xml version="1.0" encoding="utf-8"?>
<!-- Generator: Adobe Illustrator 16.0.0, SVG Export Plug-In . SVG Version: 6.00 Build 0)  -->
<!DOCTYPE svg PUBLIC "-//W3C//DTD SVG 1.1//EN" "http://www.w3.org/Graphics/SVG/1.1/DTD/svg11.dtd">
<svg version="1.1" id="Layer_1" xmlns="http://www.w3.org/2000/svg" xmlns:xlink="http://www.w3.org/1999/xlink" x="0px" y="0px"
	 width="512px" height="512px" viewBox="0 0 512 512" enable-background="new 0 0 512 512" xml:space="preserve">
<g>
	<path d="M145.977,73.264c-34.463,0-62.5,28.037-62.5,62.5v249.725c0,26.873,30.716,53.248,62.011,53.248h6.012l-0.022-365.473
		H145.977z M135.957,422.731c-7.984-1.624-15.399-5.252-21.592-10.587c-4.572-3.94-8.393-8.768-11.19-14.111h32.782V422.731z"/>
	<path d="M428.477,135.764c0-34.463-28.037-62.5-62.5-62.5h-2.81H351.08v96.704c0,2.76-1.784,5.202-4.413,6.042
		c-0.636,0.204-1.287,0.302-1.93,0.302c-2.013,0-3.955-0.961-5.168-2.665l-23.061-32.389l-23.061,32.389
		c-1.6,2.249-4.472,3.202-7.099,2.363c-2.628-0.84-4.412-3.282-4.412-6.042V73.264H176.477l0.057,364.361h189.933
		c30.604,0,56.686-21.742,62.019-51.698l0.039-0.218L428.477,135.764z M397.588,411.033c-8.643,7.446-19.695,11.547-31.122,11.547
		H191.578v-25.658h217.2C405.98,402.266,402.16,407.093,397.588,411.033z"/>
</g>
</svg>
