<?xml version="1.0" encoding="utf-8"?>
<!-- Generator: Adobe Illustrator 16.0.0, SVG Export Plug-In . SVG Version: 6.00 Build 0)  -->
<!DOCTYPE svg PUBLIC "-//W3C//DTD SVG 1.1//EN" "http://www.w3.org/Graphics/SVG/1.1/DTD/svg11.dtd">
<svg version="1.1" id="Layer_1" xmlns="http://www.w3.org/2000/svg" xmlns:xlink="http://www.w3.org/1999/xlink" x="0px" y="0px"
	 width="512px" height="512px" viewBox="0 0 512 512" enable-background="new 0 0 512 512" xml:space="preserve">
<g>
	<path d="M338.569,182.683c-9.453-19.817-23.169-35.522-36.695-42.012l-20.286-9.41l-8.877-7.483
		c-0.589-0.496-1.456-0.459-2.002,0.083l-13.568,13.491c-0.549,0.564-0.403,1.371-0.403,1.371l7.032,50.61
		c-2.463-0.382-4.992-0.596-7.564-0.596c-2.568,0-5.101,0.213-7.563,0.596l6.999-50.484c0-0.001,0.181-0.965-0.369-1.495
		l-13.569-13.493c-0.546-0.543-1.413-0.578-2.002-0.083l-8.857,7.471l-20.718,9.422c-13.525,6.49-27.242,22.195-36.694,42.012
		c-6.068,12.712-14.969,37.095-6.449,57.565c6.955,16.723,30.345,22.888,38.529,24.56l0.002,7.854
		c0,8.713,3.068,16.478,7.996,22.963l0.012,173.565c0,10.66,8.647,19.3,19.308,19.3c10.652-0.001,19.302-8.644,19.302-19.302
		l-0.018-153.01c1.379,0.116,2.744,0.182,4.086,0.182c1.354,0,2.719-0.066,4.093-0.182l-0.005,153.011
		c0,10.658,8.65,19.3,19.312,19.301c10.65,0,19.3-8.643,19.3-19.301l0.001-173.563c4.938-6.487,7.999-14.25,7.999-22.964
		l0.001-7.941c8.526-1.787,31.281-8.015,38.116-24.473C353.538,219.777,344.637,195.395,338.569,182.683z M196.296,227.234
		c-2.901-8.443,1.941-23.722,9.205-36.58l0.007,40.975C201.568,230.296,197.822,228.606,196.296,227.234z M286.965,252.268
		c0.451,2.328,1.383,4.435,2.68,6.247c-6.852,11.314-19.278,18.893-33.439,18.893c-14.294,0-26.818-7.729-33.626-19.225
		c1.177-1.737,2.037-3.726,2.456-5.915c1.342-6.902-1.988-13.614-7.762-16.928c1.543-20.134,18.409-36.049,38.932-36.049
		c20.448,0,37.257,15.79,38.919,35.812C289.098,238.332,285.6,245.206,286.965,252.268z M315.707,227.231
		c-1.414,1.266-4.9,2.903-8.803,4.254l0.009-40.09C313.943,204.094,318.546,218.949,315.707,227.231z"/>
	<path d="M256.199,122.588c23.447,0,40.938-21.837,41.336-58.458c0.246-25.412-11.846-40.62-41.336-40.62
		c-29.475,0-41.573,15.208-41.324,40.62C215.273,100.751,232.763,122.588,256.199,122.588z"/>
	<path d="M256.205,207.953c-2.919,0-5.279,2.362-5.279,5.277v21.812h-13.719c-2.912,0-5.274,2.363-5.274,5.277
		s2.362,5.277,5.274,5.277h18.998c2.922,0,5.283-2.362,5.283-5.277V213.23C261.488,210.315,259.127,207.953,256.205,207.953z"/>
</g>
</svg>
