<?xml version="1.0" encoding="utf-8"?>
<!-- Generator: Adobe Illustrator 16.0.0, SVG Export Plug-In . SVG Version: 6.00 Build 0)  -->
<!DOCTYPE svg PUBLIC "-//W3C//DTD SVG 1.1//EN" "http://www.w3.org/Graphics/SVG/1.1/DTD/svg11.dtd">
<svg version="1.1" id="Layer_1" xmlns="http://www.w3.org/2000/svg" xmlns:xlink="http://www.w3.org/1999/xlink" x="0px" y="0px"
	 width="512px" height="512px" viewBox="0 0 512 512" enable-background="new 0 0 512 512" xml:space="preserve">
<g>
	<path d="M281.625,211.452c0-8.563-6.941-15.506-15.505-15.506c-20.161,0-30.705-11.269-44.055-25.535
		c-9.412-10.058-19.145-20.46-32.983-27.099l-20.288-9.529l-7.896-6.725c-0.541-0.462-1.341-0.429-1.845,0.078l-12.508,12.568
		c-0.507,0.523-0.369,1.275-0.369,1.275l12.141,81.42c0.076,0.545-0.079,1.095-0.427,1.521l-11.484,14.031
		c-0.375,0.459-0.935,0.723-1.525,0.723s-1.15-0.264-1.524-0.723l-11.483-14.031c-0.349-0.426-0.503-0.976-0.428-1.521l12.114-81.42
		c0,0,0.138-0.752-0.368-1.275l-12.509-12.568c-0.503-0.507-1.303-0.54-1.844-0.078l-7.896,6.725l-21.266,10.111
		c-31.131,15.814-36.663,59.643-43.036,110.325c-1.213,9.647-2.468,19.624-3.923,29.546c-1.242,8.475,4.619,16.35,13.092,17.592
		c0.763,0.111,1.521,0.166,2.27,0.166c7.567,0,14.191-5.547,15.322-13.258c1.501-10.24,2.775-20.373,4.008-30.174
		c2.334-18.558,4.71-37.406,8.397-52.899l0.016,65.858c0,8.436,2.963,15.949,7.741,22.227l0.011,167.971
		c0,10.316,8.363,18.678,18.68,18.678c10.317,0,18.679-8.363,18.678-18.68l-0.008-148.078c1.327,0.111,2.648,0.176,3.957,0.176
		c1.308,0,2.629-0.064,3.957-0.176l-0.002,148.078c-0.001,10.316,8.361,18.68,18.679,18.68c10.315,0,18.679-8.363,18.679-18.68
		l0.002-167.969c4.778-6.277,7.742-13.791,7.742-22.227l0.022-85.218c1.812,1.868,3.624,3.804,5.461,5.768
		c14.741,15.752,33.086,35.357,66.699,35.357C274.684,226.958,281.625,220.016,281.625,211.452z"/>
	<path d="M144.881,125.813c22.682,0,39.611-21.136,39.995-56.577c0.244-24.594-11.467-39.311-39.995-39.311
		c-28.53,0-40.243,14.717-39.996,39.311C105.268,104.677,122.196,125.813,144.881,125.813z"/>
	<path d="M344.646,346.901c-13.843-6.286-18.449-9.38-18.449-15.299c0-4.366,4.412-8.772,14.268-8.772
		c5.783,0,9.074,1.85,9.956,2.759v2.594c0,6.399,5.192,11.595,11.596,11.595h2.525c6.403,0,11.591-5.195,11.591-11.595v-4.608
		c0-14.392-11.658-22.031-24.224-24.964v-3.57c0-6.403-5.19-11.591-11.592-11.591h-2.528c-6.399,0-11.592,5.188-11.592,11.591v4.325
		c-15.671,4.732-26.009,17.175-26.009,32.385c0,23.3,19.147,32.09,33.13,38.51c13.442,6.173,19.335,9.623,19.335,16.777
		c0,6.934-5.436,11.592-13.526,11.592c-10.332,0-16.269-7.338-18.344-10.497c-1.77-2.696-4.586-4.531-7.769-5.067
		c-3.183-0.531-6.445,0.283-8.999,2.254l-2.104,1.623c-4.832,3.725-5.947,10.559-2.552,15.627
		c3.311,4.949,11.912,15.574,26.837,19.82v3.885c0,6.4,5.192,11.592,11.592,11.592h2.528c6.401,0,11.592-5.191,11.592-11.592v-3.886
		c17.601-5.186,26.751-20.863,26.751-35.648C378.66,362.345,359.002,353.421,344.646,346.901z"/>
	<path d="M338.029,239.237c-66.951,0-121.419,54.469-121.419,121.42c0,66.95,54.468,121.419,121.419,121.419
		c66.95,0,121.419-54.469,121.419-121.419C459.448,293.706,404.979,239.237,338.029,239.237z M338.029,453.812
		c-51.366,0-93.156-41.789-93.156-93.155s41.79-93.156,93.156-93.156s93.156,41.79,93.156,93.156S389.396,453.812,338.029,453.812z"
		/>
</g>
</svg>
