<?xml version="1.0" encoding="utf-8"?>
<!-- Generator: Adobe Illustrator 16.0.0, SVG Export Plug-In . SVG Version: 6.00 Build 0)  -->
<!DOCTYPE svg PUBLIC "-//W3C//DTD SVG 1.1//EN" "http://www.w3.org/Graphics/SVG/1.1/DTD/svg11.dtd">
<svg version="1.1" id="Layer_1" xmlns="http://www.w3.org/2000/svg" xmlns:xlink="http://www.w3.org/1999/xlink" x="0px" y="0px"
	 width="512px" height="512px" viewBox="0 0 512 512" enable-background="new 0 0 512 512" xml:space="preserve">
<g>
	<path d="M293.241,357.442c3.84,0,7.678-1.465,10.607-4.393c5.857-5.859,5.857-15.355,0-21.215l-6.959-6.957l6.959-6.959
		c5.857-5.857,5.857-15.355,0-21.213s-15.355-5.859-21.213,0l-6.959,6.957l-6.958-6.957c-5.856-5.859-15.354-5.857-21.212,0
		c-5.859,5.857-5.859,15.355,0,21.213l6.957,6.959l-6.957,6.957c-5.859,5.859-5.859,15.355,0,21.215
		c2.928,2.928,6.768,4.393,10.605,4.393c3.84,0,7.678-1.465,10.606-4.395l6.958-6.957l6.959,6.957
		C285.563,355.977,289.402,357.442,293.241,357.442z"/>
	<circle cx="399.811" cy="406.27" r="35"/>
	<path d="M466.988,290.016c-0.645-2.702-2.385-5.015-4.803-6.383l-51.793-29.309c-4.802-2.718-10.902-1.03-13.624,3.771l-3.259,5.75
		c-1.309,2.309-1.647,5.043-0.938,7.6c0.708,2.558,2.403,4.729,4.713,6.035l18.692,10.572
		c-19.458,7.367-37.626,18.209-54.196,32.363c-19.644,16.78-37.138,38.244-51.998,63.795
		c-21.919,37.689-31.427,72.475-33.819,82.236c-0.641,2.615-0.2,5.379,1.222,7.664c1.424,2.287,3.708,3.902,6.338,4.482l7.819,1.725
		c0.725,0.158,1.448,0.236,2.162,0.236c4.494,0,8.566-3.051,9.695-7.588c2.218-8.914,10.994-40.643,30.788-74.68
		c23.542-40.482,52.953-68.116,87.644-82.414l-11.186,16.78c-1.471,2.208-2.005,4.911-1.482,7.514s2.058,4.89,4.269,6.36
		l5.504,3.658c4.595,3.055,10.799,1.811,13.858-2.783l32.988-49.522C467.124,295.568,467.632,292.719,466.988,290.016z"/>
	<path d="M273.813,212.527c0-8.563-6.941-15.506-15.505-15.506c-20.161,0-30.705-11.269-44.055-25.535
		c-9.412-10.058-19.145-20.46-32.983-27.099l-20.288-9.529l-7.896-6.725c-0.541-0.462-1.341-0.429-1.845,0.078l-12.508,12.568
		c-0.507,0.523-0.369,1.275-0.369,1.275l12.141,81.42c0.076,0.545-0.079,1.095-0.427,1.521l-11.484,14.031
		c-0.376,0.459-0.935,0.723-1.525,0.723s-1.15-0.264-1.525-0.723l-11.482-14.031c-0.349-0.426-0.503-0.976-0.428-1.521l12.114-81.42
		c0,0,0.138-0.752-0.368-1.275l-12.509-12.568c-0.503-0.507-1.303-0.54-1.844-0.078l-7.896,6.725l-21.266,10.111
		c-31.131,15.814-36.663,59.643-43.036,110.325c-1.213,9.647-2.469,19.624-3.923,29.546c-1.242,8.475,4.619,16.35,13.092,17.592
		c0.763,0.111,1.521,0.166,2.27,0.166c7.567,0,14.191-5.547,15.322-13.258c1.501-10.24,2.775-20.373,4.008-30.174
		c2.334-18.558,4.71-37.406,8.397-52.899l0.016,65.858c0,8.436,2.963,15.949,7.741,22.227l0.011,167.971
		c0,10.316,8.363,18.678,18.68,18.678c10.317,0,18.679-8.363,18.678-18.68l-0.008-148.078c1.327,0.111,2.648,0.176,3.957,0.176
		c1.308,0,2.629-0.064,3.957-0.176l-0.002,148.078c-0.001,10.316,8.361,18.68,18.679,18.68c10.315,0,18.679-8.363,18.679-18.68
		l0.002-167.969c4.778-6.277,7.742-13.791,7.742-22.227l0.022-85.218c1.812,1.868,3.624,3.804,5.461,5.768
		c14.741,15.752,33.086,35.357,66.699,35.357C266.872,228.033,273.813,221.091,273.813,212.527z"/>
	<path d="M137.069,126.888c22.682,0,39.611-21.136,39.995-56.577C177.308,45.717,165.597,31,137.069,31
		c-28.53,0-40.243,14.717-39.996,39.311C97.456,105.752,114.384,126.888,137.069,126.888z"/>
</g>
</svg>
