<?xml version="1.0" encoding="utf-8"?>
<!-- Generator: Adobe Illustrator 16.0.0, SVG Export Plug-In . SVG Version: 6.00 Build 0)  -->
<!DOCTYPE svg PUBLIC "-//W3C//DTD SVG 1.1//EN" "http://www.w3.org/Graphics/SVG/1.1/DTD/svg11.dtd">
<svg version="1.1" id="Layer_1" xmlns="http://www.w3.org/2000/svg" xmlns:xlink="http://www.w3.org/1999/xlink" x="0px" y="0px"
	 width="512px" height="512px" viewBox="0 0 512 512" enable-background="new 0 0 512 512" xml:space="preserve">
<g>
	<path d="M377.412,50.773c-40.109,0-72.74,32.631-72.74,72.74c0,40.109,32.631,72.74,72.74,72.74s72.74-32.631,72.74-72.74
		C450.152,83.404,417.521,50.773,377.412,50.773z M377.412,179.945c-31.117,0-56.432-25.315-56.432-56.432
		c0-31.117,25.314-56.432,56.432-56.432c31.115,0,56.432,25.315,56.432,56.432C433.844,154.629,408.527,179.945,377.412,179.945z"/>
	<path d="M377.359,77.959c-4.105,0-7.43,3.327-7.43,7.426v30.697h-19.313c-4.094,0-7.42,3.327-7.42,7.431
		c0,4.099,3.326,7.426,7.42,7.426h26.742c4.105,0,7.432-3.327,7.432-7.426V85.385C384.791,81.286,381.465,77.959,377.359,77.959z"/>
	<path d="M122.045,127.346c4.443,7.698,9.973,14.928,16.916,20.542c5.49,4.44,11.951,7.854,18.965,9.014c0,0,10.09,1.73,19.494-3.08
		c5.305-2.713,10.484-7.556,13.502-13.271c3.285-6.218,4.451-13.345,4.201-20.322c-0.314-8.788-2.764-17.417-6.234-25.454
		c-3.049-7.056-6.871-14.052-12.645-19.262c-4.688-4.229-10.535-6.846-16.859-7.217c-7.674-0.448-15.244,2.099-22.027,5.479
		c-6.945,3.462-13.734,8.036-18.197,14.517c-3.607,5.237-5.201,11.468-4.703,17.798
		C115.057,113.699,118.275,120.816,122.045,127.346z"/>
	<path d="M378.912,230.625c-2.49-4.373-8.053-5.899-12.428-3.408l-23.055,13.129l-2.996-5.264c-2.447-4.297-6.998-6.66-11.627-6.539
		c-0.42-1.482-1.006-2.939-1.813-4.333c-0.945-1.633-15.291-24.169-28.904-41.609c-25.076-32.124-75.488-32.59-81.158-32.59
		c-1.51,0-13.094,0.49-16.494,0.569c-0.93,0.021-1.816,0.024-2.66,0.015l75.387-26.79c0.471-0.167,0.826-0.556,0.951-1.039
		l4.014-15.561c0.104-0.405,0.035-0.836-0.193-1.188c-0.227-0.352-0.59-0.593-1.002-0.665l-20.922-3.629
		c-0.406-0.069-0.816,0.029-1.146,0.271l-65.104,47.97c-0.91-0.158-1.535-0.319-1.824-0.447c-0.295-0.131-0.637-0.11-0.916,0.055
		c-0.279,0.166-0.459,0.456-0.486,0.779l-1.164,14.423l-0.127,1.005c-0.039,0.312-0.223,0.587-0.496,0.743l-2.484,1.42
		c-0.154,0.088-0.324,0.132-0.496,0.132c-0.223,0-0.445-0.075-0.629-0.222l-10.332-8.637c-0.232-0.194-0.539-0.273-0.838-0.212
		c-0.299,0.06-0.553,0.251-0.691,0.521c-0.057,0.11-5.82,11.139-17.383,24.145c-0.053,0.058-0.082,0.125-0.117,0.191
		c-14.873,16.583-39.162,36.38-73.535,42.213c-10.293,1.747-17.613,10.9-16.227,21.25c1.273,9.496,9.389,16.396,18.715,16.396
		c0.836,0,1.682-0.057,2.535-0.17c35.443-4.75,61.768-23.018,78.355-38.605l18.707,74.027c0.76,2.559,1.777,4.992,3.006,7.287
		l-40.709,49.848c-3.426,4.193-5.297,9.441-5.297,14.857v66.775c0,12.973,10.516,23.488,23.488,23.488
		c12.971,0,23.488-10.516,23.488-23.488v-58.402l41.221-50.471c2.338-0.129,4.691-0.439,7.045-0.922l35.182,63.408
		c2.465,4.441,6.305,7.967,10.943,10.043l49.449,22.196c3.379,1.5,7.107,3.152,12.016,3.152c1.396,0,2.893-0.135,4.5-0.443
		c12.736-2.457,21.07-14.775,18.613-27.512c-1.563-8.105-7.115-14.426-14.23-17.318c-3.529-1.543-23.184-10.438-44.014-19.757
		l-38.154-68.768c0.635-5.018,0.268-10.227-1.266-15.398l-22.309-86.169c9.678,2.783,19.385,7.313,24.984,14.488
		c12.008,15.383,25.768,36.907,25.986,37.286c0.791,1.367,1.734,2.59,2.785,3.678c-2.291,3.877-2.512,8.84-0.127,13.027l2.998,5.264
		l-23.055,13.129c-4.373,2.49-5.898,8.055-3.41,12.426l35.33,62.039c2.492,4.373,8.057,5.9,12.43,3.408l89.611-51.035
		c4.373-2.488,5.898-8.053,3.41-12.426L378.912,230.625z M309.943,259.417l-2.998-5.264c-0.365-0.645-0.164-1.436,0.422-1.861
		c1.08,0.191,2.178,0.295,3.283,0.295c3.213,0,6.473-0.818,9.453-2.545c3.941-2.281,6.75-5.77,8.23-9.726l0.119-0.067
		c0.689-0.394,1.572-0.152,1.965,0.539l2.998,5.263L309.943,259.417z"/>
</g>
</svg>
