<?xml version="1.0" encoding="utf-8"?>
<!-- Generator: Adobe Illustrator 16.0.0, SVG Export Plug-In . SVG Version: 6.00 Build 0)  -->
<!DOCTYPE svg PUBLIC "-//W3C//DTD SVG 1.1//EN" "http://www.w3.org/Graphics/SVG/1.1/DTD/svg11.dtd">
<svg version="1.1" id="Layer_1" xmlns="http://www.w3.org/2000/svg" xmlns:xlink="http://www.w3.org/1999/xlink" x="0px" y="0px"
	 width="512px" height="512px" viewBox="0 0 512 512" enable-background="new 0 0 512 512" xml:space="preserve">
<g>
	<path d="M202.957,127.331h106.086c16.821,0,30.457-13.636,30.457-30.457c0-16.821-13.636-30.457-30.457-30.457h-5.395
		c-2.397-17.134-17.104-30.324-34.898-30.324H243.25c-17.795,0-32.501,13.189-34.898,30.324h-5.395
		c-16.821,0-30.457,13.636-30.457,30.457C172.5,113.695,186.136,127.331,202.957,127.331z"/>
	<path d="M349.5,56.907h-18.821c11.413,6.203,19.879,17.154,22.75,30.182c22.979,1.998,41.071,21.33,41.071,44.818v269
		c0,24.813-20.187,45-45,45h-187c-24.813,0-45-20.187-45-45v-269c0-23.488,18.092-42.82,41.071-44.818
		c2.87-13.028,11.336-23.979,22.75-30.182H162.5c-41.355,0-75,33.645-75,75v269c0,41.355,33.645,75,75,75h187
		c41.355,0,75-33.645,75-75v-269C424.5,90.552,390.855,56.907,349.5,56.907z"/>
	<path d="M349,179.407h-93c-8.284,0-15,6.716-15,15s6.716,15,15,15h93c8.284,0,15-6.716,15-15S357.284,179.407,349,179.407z"/>
	<path d="M349,259.407h-93c-8.284,0-15,6.716-15,15s6.716,15,15,15h93c8.284,0,15-6.716,15-15S357.284,259.407,349,259.407z"/>
	<path d="M349,339.407h-93c-8.284,0-15,6.716-15,15s6.716,15,15,15h93c8.284,0,15-6.716,15-15S357.284,339.407,349,339.407z"/>
	<path d="M233.5,194.407c0-24.854-20.147-45-45.001-45c-24.853,0-45,20.146-45,45c0,17.423,9.909,32.522,24.392,40
		c-14.483,7.477-24.392,22.576-24.392,40c0,17.423,9.909,32.522,24.392,40c-14.483,7.477-24.392,22.576-24.392,40
		c0,24.853,20.147,45,45,45c24.854,0,45.001-20.147,45.001-45c0-17.424-9.909-32.523-24.393-40
		c14.484-7.478,24.393-22.577,24.393-40c0-17.424-9.909-32.523-24.393-40C223.592,226.929,233.5,211.83,233.5,194.407z
		 M216.232,334.723c3.307,3.308,3.307,8.671,0,11.979l-27.39,27.39c-1.654,1.653-3.82,2.48-5.989,2.48s-4.335-0.827-5.989-2.48
		l-16.096-16.095c-3.307-3.307-3.307-8.671,0-11.979c3.31-3.308,8.672-3.308,11.979,0l10.105,10.105l21.399-21.4
		C207.56,331.415,212.922,331.415,216.232,334.723z M216.232,254.723c3.307,3.308,3.307,8.671,0,11.979l-27.39,27.39
		c-1.654,1.653-3.82,2.48-5.989,2.48s-4.335-0.827-5.989-2.48l-16.096-16.095c-3.307-3.307-3.307-8.671,0-11.979
		c3.31-3.308,8.672-3.308,11.979,0l10.105,10.105l21.399-21.4C207.56,251.415,212.922,251.415,216.232,254.723z M216.232,186.701
		l-27.39,27.39c-1.654,1.653-3.82,2.48-5.989,2.48s-4.335-0.827-5.989-2.48l-16.096-16.095c-3.307-3.307-3.307-8.671,0-11.979
		c3.31-3.308,8.672-3.308,11.979,0l10.105,10.105l21.399-21.4c3.307-3.308,8.67-3.308,11.979,0
		C219.539,178.031,219.539,183.394,216.232,186.701z"/>
</g>
</svg>
