<?xml version="1.0" encoding="utf-8"?>
<!-- Generator: Adobe Illustrator 16.0.0, SVG Export Plug-In . SVG Version: 6.00 Build 0)  -->
<!DOCTYPE svg PUBLIC "-//W3C//DTD SVG 1.1//EN" "http://www.w3.org/Graphics/SVG/1.1/DTD/svg11.dtd">
<svg version="1.1" id="Layer_1" xmlns="http://www.w3.org/2000/svg" xmlns:xlink="http://www.w3.org/1999/xlink" x="0px" y="0px"
	 width="512px" height="512px" viewBox="0 0 512 512" enable-background="new 0 0 512 512" xml:space="preserve">
<g>
	<path d="M278.195,410.82c-9.324,1.727-18.932,2.639-28.748,2.639c-86.831,0-157.458-70.641-157.458-157.458
		c0-86.817,70.627-157.458,157.458-157.458S406.904,169.183,406.904,256c0,1.252-0.019,2.501-0.048,3.747
		c0.701-0.065,1.409-0.104,2.127-0.104c9.63,0,17.88,5.992,21.235,14.441h0.23c6.313,0,12.332,1.272,17.822,3.566
		c0.77-7.114,1.176-14.335,1.176-21.65c0-110.276-89.724-200-200-200s-200,89.724-200,200s89.724,200,200,200
		c14.543,0,28.724-1.575,42.394-4.538c-8.425-8.4-13.646-20.012-13.646-32.82V410.82z"/>
	<path d="M228.163,154.733v87.93H172.85c-11.728,0-21.257,9.529-21.257,21.284c0,11.742,9.529,21.271,21.257,21.271h76.598
		c11.757,0,21.284-9.529,21.284-21.271V154.733c0-11.742-9.527-21.271-21.284-21.271S228.163,142.991,228.163,154.733z"/>
	<path d="M357.618,309.479c0-2.855-0.994-5.593-2.813-7.775v-19.218c0-5.152-4.193-9.343-9.347-9.343h-0.195
		c-5.151,0-9.342,4.191-9.342,9.343v19.218c-1.82,2.187-2.816,4.924-2.816,7.775c0,6.703,5.454,12.156,12.255,12.156h0.099
		C352.164,321.635,357.618,316.182,357.618,309.479z"/>
	<path d="M386.182,301.704v-19.218c0-5.152-4.193-9.343-9.347-9.343s-9.346,4.191-9.346,9.343v19.219
		c-1.817,2.187-2.813,4.924-2.813,7.774c0,6.703,5.454,12.156,12.158,12.156s12.159-5.453,12.159-12.156
		C388.994,306.627,388,303.889,386.182,301.704z"/>
	<path d="M408.211,273.143c-5.153,0-9.346,4.191-9.346,9.343v19.218c-1.817,2.182-2.812,4.919-2.812,7.775
		c0,6.703,5.454,12.156,12.157,12.156c6.704,0,12.159-5.453,12.159-12.156c0-2.849-0.996-5.587-2.816-7.774v-19.218
		C417.554,277.334,413.362,273.143,408.211,273.143z"/>
	<path d="M429.677,287.583h-3.461v18.687h3.461c7.824,0,14.19,6.364,14.19,14.187v98.186c0,7.823-6.366,14.188-14.19,14.188H323.799
		c-7.824,0-14.189-6.365-14.189-14.188v-98.186c0-7.822,6.365-14.187,14.189-14.187h3.462v-18.687h-3.462
		c-18.128,0-32.876,14.747-32.876,32.873v98.186c0,18.126,14.748,32.873,32.876,32.873h105.878
		c18.128,0,32.876-14.747,32.876-32.873v-98.186C462.553,302.33,447.805,287.583,429.677,287.583z"/>
	<path d="M336.031,364.773c-6.725,0-12.195,5.47-12.195,12.195c0,6.723,5.471,12.193,12.195,12.193
		c6.724,0,12.194-5.47,12.194-12.193C348.226,370.244,342.755,364.773,336.031,364.773z"/>
	<path d="M376.74,364.773c-6.724,0-12.193,5.47-12.193,12.195c0,6.723,5.47,12.193,12.193,12.193c6.723,0,12.192-5.47,12.192-12.193
		C388.933,370.244,383.463,364.773,376.74,364.773z"/>
	<path d="M417.447,364.773c-6.723,0-12.191,5.47-12.191,12.195c0,6.723,5.469,12.193,12.191,12.193
		c6.725,0,12.193-5.47,12.193-12.193C429.641,370.244,424.172,364.773,417.447,364.773z"/>
	<path d="M336.031,397.483c-6.725,0-12.195,5.47-12.195,12.193c0,6.725,5.471,12.196,12.195,12.196
		c6.724,0,12.194-5.471,12.194-12.196C348.226,402.953,342.755,397.483,336.031,397.483z"/>
	<path d="M376.74,397.483c-6.724,0-12.193,5.47-12.193,12.193c0,6.725,5.47,12.196,12.193,12.196
		c6.723,0,12.192-5.471,12.192-12.196C388.933,402.953,383.463,397.483,376.74,397.483z"/>
	<path d="M417.447,397.483c-6.723,0-12.191,5.47-12.191,12.193c0,6.725,5.469,12.196,12.191,12.196
		c6.725,0,12.193-5.471,12.193-12.196C429.641,402.953,424.172,397.483,417.447,397.483z"/>
	<path d="M417.447,332.062c-6.723,0-12.191,5.471-12.191,12.196c0,6.724,5.469,12.195,12.191,12.195
		c6.725,0,12.193-5.471,12.193-12.195C429.641,337.533,424.172,332.062,417.447,332.062z"/>
</g>
</svg>
