<?xml version="1.0" encoding="utf-8"?>
<!-- Generator: Adobe Illustrator 16.0.0, SVG Export Plug-In . SVG Version: 6.00 Build 0)  -->
<!DOCTYPE svg PUBLIC "-//W3C//DTD SVG 1.1//EN" "http://www.w3.org/Graphics/SVG/1.1/DTD/svg11.dtd">
<svg version="1.1" id="Layer_1" xmlns="http://www.w3.org/2000/svg" xmlns:xlink="http://www.w3.org/1999/xlink" x="0px" y="0px"
	 width="512px" height="512px" viewBox="0 0 512 512" enable-background="new 0 0 512 512" xml:space="preserve">
<path d="M363.308,406.8v-41.648c0-56.385-49.67-92.086-81.424-109.152c31.754-17.065,81.424-52.767,81.424-109.151V105.2
	c9.611-5.65,15.94-15.271,15.94-26.191c0-17.396-16.057-31.499-35.862-31.499H168.614c-19.806,0-35.862,14.103-35.862,31.499
	c0,10.92,6.33,20.541,15.94,26.191v41.648c0,56.385,49.67,92.086,81.424,109.151c-31.754,17.066-81.424,52.768-81.424,109.152V406.8
	c-9.611,5.65-15.94,15.271-15.94,26.191c0,17.396,16.057,31.499,35.862,31.499h174.772c19.806,0,35.862-14.103,35.862-31.499
	C379.249,422.071,372.919,412.45,363.308,406.8z M188.692,146.848v-33.589c0-5.523,4.477-10,10-10h114.616c5.523,0,10,4.477,10,10
	v33.589c0,37.436-42.211,64.164-60.36,73.917l-2.215,1.19c-1.478,0.794-3.105,1.191-4.733,1.191s-3.256-0.397-4.734-1.192
	l-2.215-1.19C230.903,211.012,188.692,184.285,188.692,146.848z M323.308,398.741c0,5.523-4.477,10-10,10H198.692
	c-5.523,0-10-4.477-10-10v-33.589c0-37.436,42.212-64.165,60.36-73.919l2.212-1.189c2.957-1.59,6.514-1.59,9.471,0l2.213,1.19
	c18.147,9.753,60.359,36.482,60.359,73.918V398.741z"/>
<g>
	<path d="M256,322.695c-28.905,18.035-46.308,37.983-46.308,53.78v12.311h92.616v-12.311
		C302.308,360.678,284.903,340.729,256,322.695z"/>
	<path d="M256,207.424c20.166-12.581,32.308-26.499,32.308-37.521v-8.589h-64.616v8.589
		C223.692,180.925,235.833,194.843,256,207.424z"/>
</g>
</svg>
