<?xml version="1.0" encoding="utf-8"?>
<!-- Generator: Adobe Illustrator 16.0.0, SVG Export Plug-In . SVG Version: 6.00 Build 0)  -->
<!DOCTYPE svg PUBLIC "-//W3C//DTD SVG 1.1//EN" "http://www.w3.org/Graphics/SVG/1.1/DTD/svg11.dtd">
<svg version="1.1" id="Layer_1" xmlns="http://www.w3.org/2000/svg" xmlns:xlink="http://www.w3.org/1999/xlink" x="0px" y="0px"
	 width="512px" height="512px" viewBox="0 0 512 512" enable-background="new 0 0 512 512" xml:space="preserve">
<g>
	<path d="M139.844,73.379h0.282v123.325c0,50.697,40.59,92.057,90.953,93.376v12.823c-9.547,0.819-17.064,8.83-17.064,18.606
		c0,9.776,7.518,17.786,17.064,18.606v23.067c0,25.984-13.845,62.979-37.514,62.979h-22.09c-13.781,0-24.922,11.151-24.922,24.916
		c0,13.766,11.141,24.922,24.922,24.922h169.051c13.781,0,24.922-11.157,24.922-24.922c0-13.765-11.141-24.916-24.922-24.916
		c0,0,1.524,0-22.134,0s-37.47-36.995-37.47-63.218v-22.829c9.549-0.82,17.064-8.83,17.064-18.606
		c0-9.776-7.516-17.787-17.064-18.606V290.08c50.362-1.319,90.952-42.679,90.952-93.376V73.379h0.301
		c10.322,0,18.696-8.373,18.696-18.689c0-10.314-8.374-18.689-18.696-18.689h-19.013H158.84h-18.996
		c-10.341,0-18.716,8.375-18.716,18.689C121.128,65.006,129.503,73.379,139.844,73.379z M177.503,73.379h156.995v123.325
		c0,30.916-25.162,56.073-56.074,56.073h-44.847c-30.909,0-56.074-25.158-56.074-56.073V73.379z"/>
	<path d="M229.104,138.547c1.335,1.396,3.182,2.191,5.116,2.211c1.935,0.041,3.812-0.726,5.195-2.083l6.925-6.818
		c0.632-0.633,1.182-1.22,1.699-1.776l-0.001,71.388H234.57c-4.011,0-7.267,3.247-7.267,7.26v3.571c0,4.013,3.256,7.261,7.267,7.261
		h45.589c4.029,0,7.286-3.248,7.286-7.261v-3.571c0-4.013-3.257-7.26-7.286-7.26h-11.792v-91.76c0-4.014-3.262-7.261-7.286-7.261
		h-7.391c-1.864,0-3.7,0.735-5.037,2.049l-21.879,21.221c-2.872,2.793-2.947,7.375-0.161,10.266L229.104,138.547z"/>
</g>
</svg>
