<?xml version="1.0" encoding="utf-8"?>
<!-- Generator: Adobe Illustrator 16.0.0, SVG Export Plug-In . SVG Version: 6.00 Build 0)  -->
<!DOCTYPE svg PUBLIC "-//W3C//DTD SVG 1.1//EN" "http://www.w3.org/Graphics/SVG/1.1/DTD/svg11.dtd">
<svg version="1.1" id="Layer_1" xmlns="http://www.w3.org/2000/svg" xmlns:xlink="http://www.w3.org/1999/xlink" x="0px" y="0px"
	 width="512px" height="512px" viewBox="0 0 512 512" enable-background="new 0 0 512 512" xml:space="preserve">
<g>
	<path d="M166.081,143.411c0.084,0,0.167-0.005,0.25-0.006c0.083,0.001,0.166,0.006,0.25,0.006c12.246,0,22.174-9.928,22.174-22.174
		c0-6.46-2.765-12.274-7.174-16.327v-52.5c0-8.284-6.716-15-15-15c-0.084,0-0.166,0.011-0.25,0.013
		c-0.084-0.001-0.166-0.013-0.25-0.013c-8.284,0-15,6.716-15,15v52.5c-4.409,4.053-7.174,9.866-7.174,16.327
		C143.907,133.483,153.834,143.411,166.081,143.411z"/>
	<path d="M246.581,143.411c12.246,0,22.174-9.928,22.174-22.174c0-6.46-2.765-12.274-7.174-16.327v-52.5c0-8.284-6.716-15-15-15
		s-15,6.716-15,15v52.5c-4.409,4.053-7.174,9.866-7.174,16.327C224.407,133.483,234.334,143.411,246.581,143.411z"/>
	<path d="M326.581,143.411c12.246,0,22.174-9.928,22.174-22.174c0-6.46-2.765-12.274-7.174-16.327v-52.5c0-8.284-6.716-15-15-15
		s-15,6.716-15,15v52.5c-4.409,4.053-7.174,9.866-7.174,16.327C304.407,133.483,314.334,143.411,326.581,143.411z"/>
	<path d="M426.321,149.233v176.55h6.671c8.301,0,16.19,1.777,23.329,4.948V149.233c0-41.355-33.646-75-75-75v30
		C406.133,104.233,426.321,124.42,426.321,149.233z"/>
	<path d="M211.583,444.589H111.34c-24.813,0-45-20.187-45-45V149.233c0-24.813,20.187-45,45-45v-30c-41.355,0-75,33.645-75,75
		v250.355c0,41.355,33.645,75,75,75h118.385C220.867,466.829,214.402,456.412,211.583,444.589z"/>
	<circle cx="366.331" cy="241.5" r="16"/>
	<circle cx="126.331" cy="306.411" r="16"/>
	<circle cx="206.331" cy="306.411" r="16"/>
	<circle cx="286.331" cy="306.411" r="16"/>
	<circle cx="366.331" cy="306.411" r="16"/>
	<path d="M206.331,388.911c1.265,0,2.49-0.162,3.671-0.44v-5.021c0-8.507,1.867-16.582,5.188-23.859
		c-2.537-1.691-5.581-2.68-8.858-2.68c-8.836,0-16,7.164-16,16S197.494,388.911,206.331,388.911z"/>
	<path d="M258.16,234.542l6.958,6.958l-6.958,6.958c-5.858,5.858-5.858,15.355,0,21.213c2.929,2.929,6.768,4.393,10.606,4.393
		s7.678-1.464,10.606-4.394l6.958-6.958l6.958,6.958c2.929,2.929,6.767,4.394,10.606,4.394c3.839,0,7.678-1.465,10.606-4.393
		c5.858-5.858,5.858-15.355,0-21.213l-6.958-6.958l6.958-6.958c5.858-5.858,5.858-15.355,0-21.213
		c-5.857-5.857-15.355-5.858-21.213,0l-6.958,6.958l-6.958-6.958c-5.857-5.858-15.355-5.857-21.212,0
		C252.302,219.187,252.302,228.684,258.16,234.542z"/>
	<path d="M126.331,352.573l-6.958-6.958c-5.857-5.858-15.355-5.857-21.213,0c-5.858,5.858-5.858,15.355,0,21.213l6.958,6.958
		l-6.958,6.958c-5.858,5.858-5.858,15.355,0,21.213c2.929,2.929,6.768,4.393,10.606,4.393s7.678-1.464,10.606-4.394l6.958-6.958
		l6.958,6.958c2.929,2.929,6.768,4.394,10.606,4.394s7.678-1.465,10.606-4.393c5.858-5.858,5.858-15.355,0-21.213l-6.958-6.958
		l6.958-6.958c5.858-5.858,5.858-15.355,0-21.213c-5.857-5.857-15.355-5.858-21.213,0L126.331,352.573z"/>
	<path d="M381.5,387.679c-6.738,0-9.877,6.22-9.877,19.576c0,13.463,3.139,19.735,9.877,19.735c2.424,0,9.801,0,9.801-19.735
		C391.301,387.679,383.924,387.679,381.5,387.679z"/>
	<path d="M425.854,387.679c-6.74,0-9.879,6.22-9.879,19.576c0,13.463,3.139,19.735,9.879,19.735c2.424,0,9.799,0,9.799-19.735
		C435.653,387.679,428.278,387.679,425.854,387.679z"/>
	<path d="M274.885,387.679c-6.738,0-9.877,6.22-9.877,19.576c0,13.463,3.139,19.735,9.877,19.735c2.424,0,9.799,0,9.799-19.735
		C284.684,387.679,277.309,387.679,274.885,387.679z"/>
	<path d="M432.992,340.783H267.668c-23.563,0-42.667,19.103-42.667,42.667v47.768c0,23.564,19.104,42.667,42.667,42.667h165.323
		c23.564,0,42.668-19.103,42.668-42.667V383.45C475.66,359.886,456.556,340.783,432.992,340.783z M274.885,437.664
		c-9.732,0-21.334-5.276-21.334-30.408c0-25.002,11.602-30.251,21.334-30.251c9.697,0,21.256,5.249,21.256,30.251
		C296.141,432.388,284.583,437.664,274.885,437.664z M316.579,437.664c-9.508,0-15.348-4.995-17.416-7.143
		c-1.204-1.25-1.33-3.186-0.297-4.581l2.098-2.837c0.605-0.818,1.531-1.337,2.545-1.427c1.01-0.089,2.018,0.259,2.756,0.958
		c1.628,1.539,5.133,4.121,10.314,4.121c5.858,0,10.111-3.891,10.111-9.252c0-5.585-4.674-9.486-11.363-9.486
		c-4.277,0-7.656,1.532-8.91,2.19c-0.98,0.514-2.143,0.543-3.148,0.078l-1.236-0.573c-1.369-0.635-2.188-2.064-2.045-3.565
		l2.071-21.601c0.405-4.558,2.495-6.602,6.775-6.602h19.243c4.501,0,6.784,2.283,6.784,6.784v5.184c0,1.963-1.592,3.556-3.556,3.556
		h-3.563c-1.964,0-3.556-1.592-3.556-3.556v-1.685h-11.445c-0.011,0.051-0.023,0.113-0.033,0.186l-1.092,10.063
		c1.354-0.395,3.111-0.741,5.119-0.741c12.451,0,21.49,8.38,21.49,19.926C338.225,429.063,328.918,437.664,316.579,437.664z
		 M355.042,427.48c0,1.964-1.592,3.555-3.556,3.555h-4.188c-1.963,0-3.555-1.591-3.555-3.555v-4.502
		c0-1.963,1.592-3.555,3.555-3.555h4.188c1.964,0,3.556,1.592,3.556,3.555V427.48z M355.042,395.956
		c0,1.964-1.592,3.556-3.556,3.556h-4.188c-1.963,0-3.555-1.591-3.555-3.556v-4.501c0-1.963,1.592-3.556,3.555-3.556h4.188
		c1.964,0,3.556,1.592,3.556,3.556V395.956z M381.5,437.664c-9.73,0-21.332-5.276-21.332-30.408
		c0-25.002,11.602-30.251,21.332-30.251c9.697,0,21.256,5.249,21.256,30.251C402.756,432.388,391.198,437.664,381.5,437.664z
		 M425.854,437.664c-9.732,0-21.334-5.276-21.334-30.408c0-25.002,11.602-30.251,21.334-30.251c9.697,0,21.254,5.249,21.254,30.251
		C447.108,432.388,435.551,437.664,425.854,437.664z"/>
</g>
</svg>
