<?xml version="1.0" encoding="utf-8"?>
<!-- Generator: Adobe Illustrator 16.0.0, SVG Export Plug-In . SVG Version: 6.00 Build 0)  -->
<!DOCTYPE svg PUBLIC "-//W3C//DTD SVG 1.1//EN" "http://www.w3.org/Graphics/SVG/1.1/DTD/svg11.dtd">
<svg version="1.1" id="Layer_1" xmlns="http://www.w3.org/2000/svg" xmlns:xlink="http://www.w3.org/1999/xlink" x="0px" y="0px"
	 width="512px" height="512px" viewBox="0 0 512 512" enable-background="new 0 0 512 512" xml:space="preserve">
<g>
	<path d="M353.5,46h-195c-39.639,0-71.887,32.25-71.887,71.889v276.223c0,39.641,32.248,71.889,71.887,71.889h195
		c4.766,0,9.337-1.893,12.707-5.264l53.916-53.916c3.372-3.371,5.264-7.941,5.264-12.709V117.889C425.387,78.25,393.139,46,353.5,46
		z M389.443,354.934h-55.658c-10.732,0-19.465,8.73-19.465,19.465v55.658H158.5c-19.818,0-35.943-16.125-35.943-35.945V117.889
		c0-19.82,16.125-35.945,35.943-35.945h195c19.818,0,35.943,16.125,35.943,35.945V354.934z"/>
	<path d="M170.4,133h65c5.523,0,10-4.478,10-10s-4.477-10-10-10h-65c-5.523,0-10,4.478-10,10S164.877,133,170.4,133z"/>
	<path d="M235.4,173c5.523,0,10-4.478,10-10s-4.477-10-10-10h-65c-5.523,0-10,4.478-10,10s4.477,10,10,10H235.4z"/>
	<path d="M328.5,221h-145c-5.523,0-10,4.478-10,10s4.477,10,10,10h145c5.523,0,10-4.478,10-10S334.023,221,328.5,221z"/>
	<path d="M328.5,261h-145c-5.523,0-10,4.478-10,10s4.477,10,10,10h145c5.523,0,10-4.478,10-10S334.023,261,328.5,261z"/>
	<circle cx="193.4" cy="370" r="30"/>
</g>
</svg>
