<?xml version="1.0" encoding="utf-8"?>
<!-- Generator: Adobe Illustrator 16.0.0, SVG Export Plug-In . SVG Version: 6.00 Build 0)  -->
<!DOCTYPE svg PUBLIC "-//W3C//DTD SVG 1.1//EN" "http://www.w3.org/Graphics/SVG/1.1/DTD/svg11.dtd">
<svg version="1.1" id="Layer_1" xmlns="http://www.w3.org/2000/svg" xmlns:xlink="http://www.w3.org/1999/xlink" x="0px" y="0px"
	 width="512px" height="512px" viewBox="0 0 512 512" enable-background="new 0 0 512 512" xml:space="preserve">
<g>
	<path d="M378.27,86h-48.197c-30.229,0-58.269,15.707-74.271,40.826H133.73c-48.521,0-87.995,39.475-87.995,87.997v123.182
		c0,48.519,39.473,87.995,87.995,87.995h244.54c48.521,0,87.995-39.476,87.995-87.995V173.995C466.265,125.476,426.792,86,378.27,86
		z M419.333,338.005c0,22.641-18.42,41.063-41.063,41.063H133.73c-22.643,0-41.063-18.423-41.063-41.063V220.802h326.666V338.005z"
		/>
	<path d="M134.508,345.437c9.086-0.104,12.203-3.92,14.758-10.877l7.719-20.586h31.459l7.695,20.525
		c2.578,7.015,5.695,10.835,14.783,10.939c0.026,0,0.056,0,0.085,0c1.942,0,3.807-0.765,5.19-2.132
		c1.403-1.387,2.194-3.279,2.194-5.25v-0.786c0-3.893-3.021-7.107-6.887-7.366l-30.356-81.033c-1.081-2.885-3.835-4.794-6.914-4.794
		h-3.04c-3.081,0-5.836,1.91-6.916,4.794l-30.354,81.033c-3.865,0.258-6.887,3.473-6.887,7.366v0.786c0,1.97,0.791,3.862,2.192,5.25
		C130.632,344.691,132.523,345.493,134.508,345.437z M172.722,271.854l10.013,26.58H162.8L172.722,271.854z"/>
</g>
</svg>
