<?xml version="1.0" encoding="utf-8"?>
<!-- Generator: Adobe Illustrator 16.0.0, SVG Export Plug-In . SVG Version: 6.00 Build 0)  -->
<!DOCTYPE svg PUBLIC "-//W3C//DTD SVG 1.1//EN" "http://www.w3.org/Graphics/SVG/1.1/DTD/svg11.dtd">
<svg version="1.1" id="Layer_1" xmlns="http://www.w3.org/2000/svg" xmlns:xlink="http://www.w3.org/1999/xlink" x="0px" y="0px"
	 width="512px" height="512px" viewBox="0 0 512 512" enable-background="new 0 0 512 512" xml:space="preserve">
<g>
	<path d="M374.484,96.74L236.104,56h-98.588c-11.25,0-20.37,9.119-20.37,20.369v359.263c0,11.25,9.12,20.368,20.37,20.368h98.588
		l138.38-40.74c15.25-4.26,20.37-9.119,20.37-20.369V117.109C394.854,105.859,388.428,100.233,374.484,96.74z M160.533,130.726
		c0-11.251,9.12-20.372,20.371-20.372h6.925c11.251,0,20.371,9.121,20.371,20.372V282.48c0,11.251-9.12,20.37-20.371,20.37h-6.925
		c-11.251,0-20.371-9.119-20.371-20.37V130.726z M184.365,378.898c-14.063,0-25.461-11.398-25.461-25.463
		c0-14.063,11.399-25.46,25.461-25.46c14.062,0,25.463,11.397,25.463,25.46C209.828,367.5,198.427,378.898,184.365,378.898z"/>
</g>
</svg>
