<?xml version="1.0" encoding="utf-8"?>
<!-- Generator: Adobe Illustrator 16.0.0, SVG Export Plug-In . SVG Version: 6.00 Build 0)  -->
<!DOCTYPE svg PUBLIC "-//W3C//DTD SVG 1.1//EN" "http://www.w3.org/Graphics/SVG/1.1/DTD/svg11.dtd">
<svg version="1.1" id="Layer_1" xmlns="http://www.w3.org/2000/svg" xmlns:xlink="http://www.w3.org/1999/xlink" x="0px" y="0px"
	 width="512px" height="512px" viewBox="0 0 512 512" enable-background="new 0 0 512 512" xml:space="preserve">
<path d="M430.695,297.987l-25.323-71.713l25.568-72.409c1.357-3.843,0.765-8.104-1.589-11.432s-6.176-5.306-10.251-5.306
	c0,0-121.6,0-129.267,0c-7.979,0-7.595-4.415-7.595-4.415c0-27.587-16.989-39.896-36.56-39.896H138.503
	c2.44-3.742,3.82-8.172,3.82-12.816c0-12.958-10.542-23.5-23.5-23.5h-15c-12.958,0-23.5,10.542-23.5,23.5
	c0,8.14,4.226,15.629,11,19.889V455.5h40V293.807h115.504c1.922,0,5.411,0.578,5.411,6v0.614c0,8.284,6.716,15,15,15
	c0.014,0,0.027-0.002,0.042-0.002c0.014,0,0.027,0.002,0.041,0.002H419.1c0.006,0,0.013,0,0.021,0
	c6.935,0,12.556-5.622,12.556-12.557C431.676,301.135,431.327,299.486,430.695,297.987z"/>
</svg>
