<?xml version="1.0" encoding="utf-8"?>
<!-- Generator: Adobe Illustrator 16.0.0, SVG Export Plug-In . SVG Version: 6.00 Build 0)  -->
<!DOCTYPE svg PUBLIC "-//W3C//DTD SVG 1.1//EN" "http://www.w3.org/Graphics/SVG/1.1/DTD/svg11.dtd">
<svg version="1.1" id="Layer_1" xmlns="http://www.w3.org/2000/svg" xmlns:xlink="http://www.w3.org/1999/xlink" x="0px" y="0px"
	 width="512px" height="512px" viewBox="0 0 512 512" enable-background="new 0 0 512 512" xml:space="preserve">
<g>
	<path d="M157.986,241.206c6.078,0,12.154-2.316,16.791-6.947c9.26-9.269,9.26-24.295,0-33.569l-11.02-11.007l11.02-11.008
		c9.26-9.267,9.26-24.295,0-33.563c-9.271-9.27-24.307-9.272-33.566,0l-11.008,11.009l-11.021-11.009
		c-9.258-9.272-24.293-9.27-33.553,0c-9.275,9.269-9.275,24.297,0,33.563l11.006,11.008l-11.006,11.007
		c-9.275,9.274-9.275,24.301,0,33.569c4.635,4.631,10.701,6.947,16.775,6.947c6.078,0,12.154-2.316,16.777-6.951l11.021-11.005
		l11.008,11.005C145.846,238.889,151.91,241.206,157.986,241.206z"/>
	<path d="M326.602,263.093c-30.586,0-55.375,24.79-55.375,55.375s24.789,55.375,55.375,55.375c30.584,0,55.387-24.79,55.387-55.375
		S357.186,263.093,326.602,263.093z"/>
	<path d="M432.896,134.524c-1.021-4.274-3.781-7.933-7.598-10.097l-81.953-46.372c-7.598-4.302-17.248-1.631-21.547,5.965
		l-5.162,9.101c-2.07,3.652-2.604,7.979-1.486,12.023c1.117,4.046,3.809,7.48,7.463,9.548l29.572,16.729
		c-30.791,11.656-59.529,28.811-85.75,51.206c-31.078,26.548-58.768,60.509-82.283,100.937
		c-34.674,59.63-49.719,114.674-53.506,130.114c-1.004,4.143-0.307,8.51,1.943,12.128c2.25,3.619,5.857,6.179,10.025,7.096
		l12.373,2.728c1.139,0.254,2.289,0.371,3.418,0.371c7.107,0,13.559-4.823,15.336-12c3.51-14.113,17.396-64.315,48.717-118.159
		c37.254-64.054,83.781-107.78,138.668-130.402l-17.693,26.548c-2.326,3.495-3.172,7.77-2.35,11.893
		c0.832,4.116,3.26,7.735,6.752,10.06l8.711,5.787c7.273,4.833,17.088,2.864,21.932-4.4l52.189-78.358
		C433.111,143.309,433.914,138.804,432.896,134.524z"/>
</g>
</svg>
