<?xml version="1.0" encoding="utf-8"?>
<!-- Generator: Adobe Illustrator 16.0.0, SVG Export Plug-In . SVG Version: 6.00 Build 0)  -->
<!DOCTYPE svg PUBLIC "-//W3C//DTD SVG 1.1//EN" "http://www.w3.org/Graphics/SVG/1.1/DTD/svg11.dtd">
<svg version="1.1" id="Layer_1" xmlns="http://www.w3.org/2000/svg" xmlns:xlink="http://www.w3.org/1999/xlink" x="0px" y="0px"
	 width="512px" height="512px" viewBox="0 0 512 512" enable-background="new 0 0 512 512" xml:space="preserve">
<path d="M445.067,220.786l-34.613-34.614l10.324-10.325c21.245-21.245,21.244-55.688,0-76.933l-7.692-7.693
	c-21.246-21.243-55.689-21.244-76.934,0l-10.324,10.325l-34.614-34.613c-21.244-21.245-55.688-21.244-76.932,0L182.92,98.295
	l23.531,23.531c21.244,21.245,21.244,55.688,0,76.932l-7.692,7.693c-21.246,21.245-55.688,21.246-76.934,0l-23.529-23.53
	l-31.362,31.362c-21.244,21.244-21.246,55.686,0,76.93l34.612,34.615l22.262-22.262c21.245-21.242,55.688-21.242,76.932,0
	l7.694,7.693c21.241,21.244,21.242,55.688-0.001,76.932l-22.26,22.262l34.612,34.615c21.245,21.242,55.69,21.242,76.933-0.002
	l31.362-31.363l13.284,13.287c21.245,21.244,55.688,21.244,76.933,0l7.693-7.693c21.244-21.244,21.245-55.688,0-76.932
	l-13.286-13.285l31.363-31.361C466.312,276.475,466.312,242.03,445.067,220.786z"/>
</svg>
