<?xml version="1.0" encoding="utf-8"?>
<!-- Generator: Adobe Illustrator 16.0.0, SVG Export Plug-In . SVG Version: 6.00 Build 0)  -->
<!DOCTYPE svg PUBLIC "-//W3C//DTD SVG 1.1//EN" "http://www.w3.org/Graphics/SVG/1.1/DTD/svg11.dtd">
<svg version="1.1" id="Layer_1" xmlns="http://www.w3.org/2000/svg" xmlns:xlink="http://www.w3.org/1999/xlink" x="0px" y="0px"
	 width="512px" height="512px" viewBox="0 0 512 512" enable-background="new 0 0 512 512" xml:space="preserve">
<g>
	<path d="M305.269,418.188H274.76V138.579H403.34l-54.464,86.423c-2.762,4.382-1.448,10.176,2.935,12.937
		c1.553,0.98,3.282,1.445,4.992,1.445c3.115,0,6.161-1.551,7.944-4.378l47.235-74.954l47.234,74.954
		c2.763,4.382,8.556,5.696,12.938,2.933c4.382-2.761,5.695-8.555,2.933-12.937l-54.462-86.423h0.687c8.03,0,14.54-6.51,14.54-14.539
		c0-8.028-6.509-14.538-14.54-14.538H314.356c-6.04-8.786-14.953-15.438-25.389-18.596C287.475,74.005,273.289,60.75,256,60.75
		c-17.29,0-31.475,13.255-32.967,30.156c-10.436,3.158-19.35,9.81-25.389,18.596H90.688c-8.03,0-14.54,6.51-14.54,14.538
		c0,8.029,6.509,14.539,14.54,14.539h0.688l-54.464,86.423c-2.762,4.382-1.448,10.176,2.934,12.937
		c1.554,0.98,3.283,1.445,4.992,1.445c3.114,0,6.162-1.551,7.945-4.378l47.235-74.954l47.234,74.954
		c2.762,4.382,8.555,5.696,12.937,2.933c4.383-2.761,5.696-8.555,2.935-12.937l-54.463-86.423h128.58v279.608h-30.509
		c-18.259,0-33.062,14.803-33.062,33.063h164.661C338.331,432.99,323.528,418.188,305.269,418.188z"/>
	<path d="M169.035,249.359H31c-2.761,0-5,2.238-5,5c0,40.813,33.204,74.017,74.018,74.017c40.813,0,74.018-33.204,74.018-74.017
		C174.035,251.598,171.796,249.359,169.035,249.359z"/>
	<path d="M481,249.359H342.965c-2.761,0-5,2.238-5,5c0,40.813,33.204,74.017,74.018,74.017S486,295.172,486,254.359
		C486,251.598,483.761,249.359,481,249.359z"/>
</g>
</svg>
