<?xml version="1.0" encoding="utf-8"?>
<!-- Generator: Adobe Illustrator 16.0.0, SVG Export Plug-In . SVG Version: 6.00 Build 0)  -->
<!DOCTYPE svg PUBLIC "-//W3C//DTD SVG 1.1//EN" "http://www.w3.org/Graphics/SVG/1.1/DTD/svg11.dtd">
<svg version="1.1" id="Layer_1" xmlns="http://www.w3.org/2000/svg" xmlns:xlink="http://www.w3.org/1999/xlink" x="0px" y="0px"
	 width="512px" height="512px" viewBox="0 0 512 512" enable-background="new 0 0 512 512" xml:space="preserve">
<g>
	<path d="M403.942,301.194c-21.178,1.305-49.043,22.474-75.923,34.648c-32.925,14.896-84.205,2.914-84.21,2.914
		c7.899-3.703,40.039-11.36,46.517-14.221c34.409-15.123,31.507-46.688,15.119-46.422c-21.668,0.365-34.363,5.679-77.568,11.57
		c-32.746,4.451-71.474,2.824-90.053,9.916c-26.224,10.018-68.471,77.41-68.471,77.41l65.311,63.271
		c0,0,40.424-39.804,60.092-39.804c44.818,0,46.637-0.616,88.266-2.864c17.683-0.946,21.39-1.672,31.512-5.104
		c53.946-18.224,111.875-66.802,112.942-72.647C429.953,306.331,415.151,300.497,403.942,301.194z"/>
	<path d="M313.816,203.27c1.122,0.229,2.266-0.267,2.872-1.239c15.004-24.177,37.661-53.425,67.205-73.302
		c-27.537,26.443-46.979,54.278-58.766,80.481c-0.354,0.787-0.315,1.692,0.102,2.446c0.418,0.754,1.167,1.268,2.023,1.386
		c1.924,0.261,3.922,0.396,5.933,0.396c18.869,0,37.664-11.498,50.106-21.142c14.208-11.013,27.853-25.565,36.504-38.934
		c12.975-20.053,21.088-44.767,22.845-69.595c0.056-0.79-0.233-1.566-0.793-2.128c-0.562-0.56-1.339-0.854-2.128-0.793
		c-18.799,1.331-65.446,7.364-92.724,34.589c-0.952,0.86-10.995,10.1-20.336,24.872c-12.8,20.254-17.99,41.24-14.998,60.697
		C311.832,202.137,312.691,203.041,313.816,203.27z"/>
	<path d="M239.213,232.266c11.859,9.192,29.771,20.148,47.755,20.148c1.918,0,3.822-0.125,5.653-0.379
		c0.816-0.112,1.53-0.6,1.927-1.318c0.399-0.718,0.434-1.581,0.1-2.331c-11.233-24.972-29.763-51.5-56.009-76.702
		c28.157,18.945,49.751,46.821,64.049,69.862c0.577,0.926,1.671,1.397,2.74,1.178c1.067-0.221,1.889-1.08,2.055-2.159
		c2.846-18.541-2.094-38.544-14.296-57.844c-8.9-14.08-18.476-22.882-19.383-23.705c-25.994-25.945-70.451-31.696-88.368-32.963
		c-0.751-0.059-1.494,0.22-2.027,0.755c-0.534,0.534-0.811,1.276-0.757,2.029c1.676,23.661,9.407,47.214,21.772,66.323
		C212.668,207.903,225.674,221.771,239.213,232.266z"/>
	<path d="M264.842,142.471c7.899,6.12,19.83,13.419,31.807,13.419c1.277,0,2.546-0.087,3.766-0.254
		c0.545-0.074,1.019-0.399,1.284-0.876c0.266-0.482,0.29-1.054,0.065-1.556c-7.481-16.634-19.821-34.3-37.302-51.086
		c18.752,12.617,33.134,31.186,42.66,46.531c0.384,0.615,1.114,0.931,1.825,0.785s1.257-0.718,1.368-1.438
		c1.896-12.349-1.394-25.672-9.521-38.528c-5.928-9.375-12.306-15.24-12.909-15.787c-17.316-17.282-46.925-21.112-58.858-21.957
		c-0.503-0.039-0.996,0.149-1.353,0.504c-0.355,0.355-0.539,0.849-0.503,1.35c1.115,15.761,6.265,31.449,14.501,44.175
		C247.162,126.241,255.826,135.478,264.842,142.471z"/>
</g>
</svg>
