<?xml version="1.0" encoding="utf-8"?>
<!-- Generator: Adobe Illustrator 16.0.0, SVG Export Plug-In . SVG Version: 6.00 Build 0)  -->
<!DOCTYPE svg PUBLIC "-//W3C//DTD SVG 1.1//EN" "http://www.w3.org/Graphics/SVG/1.1/DTD/svg11.dtd">
<svg version="1.1" id="Layer_1" xmlns="http://www.w3.org/2000/svg" xmlns:xlink="http://www.w3.org/1999/xlink" x="0px" y="0px"
	 width="512px" height="512px" viewBox="0 0 512 512" enable-background="new 0 0 512 512" xml:space="preserve">
<g>
	<path d="M193.636,128.156h47.355c4.024,0,7.286-3.262,7.286-7.285s-3.262-7.286-7.286-7.286h-47.355
		c-4.023,0-7.286,3.263-7.286,7.286S189.613,128.156,193.636,128.156z"/>
	<path d="M193.636,157.298h47.355c4.024,0,7.286-3.262,7.286-7.285s-3.262-7.286-7.286-7.286h-47.355
		c-4.023,0-7.286,3.263-7.286,7.286S189.613,157.298,193.636,157.298z"/>
	<path d="M195.895,199.554c0,4.023,3.262,7.286,7.285,7.286h105.64c4.023,0,7.285-3.263,7.285-7.286s-3.262-7.285-7.285-7.285
		H203.18C199.157,192.269,195.895,195.53,195.895,199.554z"/>
	<path d="M308.82,221.41H203.18c-4.023,0-7.285,3.262-7.285,7.285s3.262,7.286,7.285,7.286h105.64c4.023,0,7.285-3.263,7.285-7.286
		S312.843,221.41,308.82,221.41z"/>
	<path d="M438.725,201.384l-59.319-44.977v-54.761c0-28.879-23.493-52.374-52.372-52.374H184.966
		c-28.878,0-52.373,23.495-52.373,52.374v54.965l-59.319,44.978c-2.494,1.891-3.959,4.84-3.959,7.969l0.033,233.17
		c0,11.047,8.955,20,20,20h333.302c11.045,0,20-8.953,20-20l0.033-233.375C442.684,206.224,441.219,203.274,438.725,201.384z
		 M184.966,75.459h142.067c14.438,0,26.187,11.748,26.187,26.188v171.015l-95.252,72.223c-0.186,0.102-0.955,0.643-1.834,0.643
		s-1.643-0.539-1.83-0.641l-95.524-72.43v-170.81C158.78,87.207,170.528,75.459,184.966,75.459z M98.316,218.995l34.278-25.99
		v59.596l-34.278-25.99V218.995z M413.684,226.815l-34.278,25.99V192.8l34.278,25.99V226.815z"/>
</g>
</svg>
