<?xml version="1.0" encoding="utf-8"?>
<!-- Generator: Adobe Illustrator 16.0.0, SVG Export Plug-In . SVG Version: 6.00 Build 0)  -->
<!DOCTYPE svg PUBLIC "-//W3C//DTD SVG 1.1//EN" "http://www.w3.org/Graphics/SVG/1.1/DTD/svg11.dtd">
<svg version="1.1" id="Layer_1" xmlns="http://www.w3.org/2000/svg" xmlns:xlink="http://www.w3.org/1999/xlink" x="0px" y="0px"
	 width="512px" height="512px" viewBox="0 0 512 512" enable-background="new 0 0 512 512" xml:space="preserve">
<g>
	<path d="M175.75,143.411c0.084,0,0.167-0.005,0.25-0.006c0.083,0.001,0.166,0.006,0.25,0.006c12.246,0,22.174-9.928,22.174-22.174
		c0-6.46-2.765-12.274-7.174-16.327v-52.5c0-8.284-6.716-15-15-15c-0.084,0-0.166,0.011-0.25,0.013
		c-0.084-0.001-0.166-0.013-0.25-0.013c-8.284,0-15,6.716-15,15v52.5c-4.409,4.053-7.174,9.866-7.174,16.327
		C153.576,133.483,163.504,143.411,175.75,143.411z"/>
	<path d="M256.25,143.411c12.246,0,22.174-9.928,22.174-22.174c0-6.46-2.765-12.274-7.174-16.327v-52.5c0-8.284-6.716-15-15-15
		s-15,6.716-15,15v52.5c-4.409,4.053-7.174,9.866-7.174,16.327C234.076,133.483,244.004,143.411,256.25,143.411z"/>
	<path d="M336.25,143.411c12.246,0,22.174-9.928,22.174-22.174c0-6.46-2.765-12.274-7.174-16.327v-52.5c0-8.284-6.716-15-15-15
		s-15,6.716-15,15v52.5c-4.409,4.053-7.174,9.866-7.174,16.327C314.076,133.483,324.004,143.411,336.25,143.411z"/>
	<path d="M390.99,74.233v30c24.813,0,45,20.187,45,45v250.355c0,24.813-20.187,45-45,45H121.01c-24.813,0-45-20.187-45-45V149.233
		c0-24.813,20.187-45,45-45v-30c-41.355,0-75,33.645-75,75v250.355c0,41.355,33.645,75,75,75h269.98c41.355,0,75-33.645,75-75
		V149.233C465.99,107.878,432.345,74.233,390.99,74.233z"/>
	<path d="M270.832,209.411H116.5c-4.971,0-9,4.029-9,9s4.029,9,9,9h138.711C259.088,220.356,264.431,214.218,270.832,209.411z"/>
	<path d="M395.5,209.411h-57.253c6.4,4.807,11.744,10.945,15.62,18H395.5c4.971,0,9-4.029,9-9S400.471,209.411,395.5,209.411z"/>
	<path d="M116.5,307.411h41.633c3.876-7.055,9.22-13.193,15.62-18H116.5c-4.971,0-9,4.029-9,9S111.529,307.411,116.5,307.411z"/>
	<path d="M395.5,289.411h-46.977c-6.49,8.138-15.179,14.443-25.167,18H395.5c4.971,0,9-4.029,9-9S400.471,289.411,395.5,289.411z"/>
	<path d="M256.789,307.411h28.934c-9.989-3.557-18.678-9.862-25.167-18h-19.387C247.569,294.218,252.912,300.356,256.789,307.411z"
		/>
	<path d="M116.5,387.411h72.145c-9.989-3.557-18.678-9.862-25.167-18H116.5c-4.971,0-9,4.029-9,9S111.529,387.411,116.5,387.411z"/>
	<path d="M404.5,378.411c0-4.971-4.029-9-9-9H251.445c-6.49,8.138-15.179,14.443-25.167,18H395.5
		C400.471,387.411,404.5,383.382,404.5,378.411z"/>
	<path d="M263.291,254.411c0,22.781,18.467,41.248,41.248,41.248s41.248-18.467,41.248-41.248s-18.467-41.248-41.248-41.248
		S263.291,231.63,263.291,254.411z M288.787,246.021l10.105,10.105l21.399-21.399c3.307-3.308,8.67-3.308,11.979,0
		c3.307,3.308,3.307,8.671,0,11.979l-27.39,27.39c-1.654,1.653-3.82,2.479-5.989,2.479s-4.335-0.826-5.989-2.479L276.807,258
		c-3.307-3.307-3.307-8.671,0-11.979C280.117,242.714,285.479,242.714,288.787,246.021z"/>
	<path d="M248.709,334.411c0-22.781-18.467-41.248-41.248-41.248s-41.248,18.467-41.248,41.248s18.467,41.248,41.248,41.248
		S248.709,357.192,248.709,334.411z M195.825,354.096L179.729,338c-3.307-3.307-3.307-8.671,0-11.979
		c3.31-3.308,8.672-3.308,11.979,0l10.105,10.105l21.399-21.399c3.307-3.308,8.67-3.308,11.979,0c3.307,3.308,3.307,8.671,0,11.979
		l-27.39,27.39c-1.654,1.653-3.82,2.479-5.989,2.479S197.479,355.749,195.825,354.096z"/>
</g>
</svg>
