<?xml version="1.0" encoding="utf-8"?>
<!-- Generator: Adobe Illustrator 16.0.0, SVG Export Plug-In . SVG Version: 6.00 Build 0)  -->
<!DOCTYPE svg PUBLIC "-//W3C//DTD SVG 1.1//EN" "http://www.w3.org/Graphics/SVG/1.1/DTD/svg11.dtd">
<svg version="1.1" id="Layer_1" xmlns="http://www.w3.org/2000/svg" xmlns:xlink="http://www.w3.org/1999/xlink" x="0px" y="0px"
	 width="512px" height="512px" viewBox="0 0 512 512" enable-background="new 0 0 512 512" xml:space="preserve">
<g>
	<path d="M229.261,269.373c-0.948-1.103-2.311-1.763-3.765-1.823c-1.465-0.058-2.867,0.486-3.902,1.507l-14.001,13.805l-0.001,0
		c-8.41,4.491-36.617,19.574-37.647,20.141c-50.438,28.289-93.03,128.781-98.767,146.085c-1.217,3.647-1.89,7.521-2.003,11.514
		c-0.04,1.417,0.495,2.791,1.483,3.807c0.988,1.017,2.346,1.591,3.765,1.591h152.212c2.626,0,4.848-1.94,5.202-4.542l21.903-160.907
		c0.203-1.488-0.242-2.991-1.223-4.13L229.261,269.373z"/>
	<path d="M440.814,448.983c-5.738-17.313-48.334-117.799-98.864-146.137l-36.619-19.856l-14.163-13.937
		c-1.034-1.019-2.444-1.555-3.899-1.503c-1.451,0.061-2.813,0.72-3.761,1.822l-23.271,27.058c-0.979,1.14-1.423,2.644-1.22,4.133
		l21.946,160.897c0.354,2.601,2.575,4.54,5.2,4.54h151.413c1.417,0,2.772-0.572,3.76-1.585c0.988-1.014,1.524-2.384,1.488-3.799
		C442.723,456.611,442.047,452.697,440.814,448.983z"/>
	<path d="M346.602,135.066C347.167,79.346,320.633,46,255.996,46s-91.147,33.346-90.609,89.066
		c0.872,80.284,39.214,128.171,90.609,128.171C307.384,263.238,345.734,215.351,346.602,135.066z"/>
</g>
</svg>
