<?xml version="1.0" encoding="utf-8"?>
<!-- Generator: Adobe Illustrator 16.0.0, SVG Export Plug-In . SVG Version: 6.00 Build 0)  -->
<!DOCTYPE svg PUBLIC "-//W3C//DTD SVG 1.1//EN" "http://www.w3.org/Graphics/SVG/1.1/DTD/svg11.dtd">
<svg version="1.1" id="Layer_1" xmlns="http://www.w3.org/2000/svg" xmlns:xlink="http://www.w3.org/1999/xlink" x="0px" y="0px"
	 width="512px" height="512px" viewBox="0 0 512 512" enable-background="new 0 0 512 512" xml:space="preserve">
<path d="M369,188.046h-31.461V104.1c0-33.137-26.863-60-60-60h-43.078c-33.137,0-60,26.863-60,60v83.946H143
	c-41.355,0-75,33.645-75,75v85.294c0,41.355,33.645,75,75,75c8.283,0,15-6.716,15-15s-6.717-15-15-15c-24.813,0-45-20.187-45-45
	v-85.294c0-24.813,20.187-45,45-45h31.461v10.938c0,3.248,0.267,6.434,0.764,9.541C166.707,243.611,161,252.917,161,263.56
	c0,16.097,13.047,29.142,29.142,29.142h53.71v106.896l-48.061-26.038c-5.899-3.193-13.273-1.004-16.469,4.895
	c-3.195,5.899-1.005,13.272,4.895,16.469l46.28,25.073l-46.28,25.073c-5.899,3.196-8.09,10.569-4.895,16.469
	c2.2,4.06,6.377,6.363,10.692,6.363c1.954,0,3.937-0.473,5.776-1.469L256,433.813l60.209,32.619c1.84,0.996,3.821,1.469,5.776,1.469
	c4.314,0,8.493-2.304,10.692-6.363c3.195-5.899,1.004-13.272-4.895-16.469l-46.281-25.073l46.281-25.073
	c5.898-3.196,8.09-10.569,4.895-16.469c-3.196-5.898-10.567-8.09-16.469-4.895l-48.061,26.038V292.701h53.71
	c16.093,0,29.142-13.045,29.142-29.142c0-10.643-5.707-19.947-14.225-25.033c0.497-3.108,0.764-6.294,0.764-9.542v-10.938H369
	c24.813,0,45,20.187,45,45v85.294c0,24.813-20.187,45-45,45c-8.284,0-15,6.716-15,15s6.716,15,15,15c41.355,0,75-33.645,75-75
	v-85.294C444,221.69,410.355,188.046,369,188.046z"/>
</svg>
