<?xml version="1.0" encoding="utf-8"?>
<!-- Generator: Adobe Illustrator 16.0.0, SVG Export Plug-In . SVG Version: 6.00 Build 0)  -->
<!DOCTYPE svg PUBLIC "-//W3C//DTD SVG 1.1//EN" "http://www.w3.org/Graphics/SVG/1.1/DTD/svg11.dtd">
<svg version="1.1" id="Layer_1" xmlns="http://www.w3.org/2000/svg" xmlns:xlink="http://www.w3.org/1999/xlink" x="0px" y="0px"
	 width="512px" height="512px" viewBox="0 0 512 512" enable-background="new 0 0 512 512" xml:space="preserve">
<g>
	<path d="M429.959,299.103c8.604-10.171,20.387-24.101,20.387-43.103s-11.783-32.933-20.389-43.106
		c-2.741-3.239-7.327-8.661-8.104-10.782c-0.773-2.382-0.245-9.954,0.07-14.485c0.91-13.07,2.157-30.971-8.701-45.887
		c-10.931-15.019-28.423-19.355-41.201-22.523c-4.33-1.074-11.579-2.871-13.523-4.265c-1.877-1.422-5.733-7.641-8.037-11.357
		c-6.981-11.256-16.542-26.673-34.398-32.471c-4.423-1.437-9.128-2.165-13.985-2.165c-11.947,0-22.558,4.285-31.92,8.067
		c-4.564,1.843-11.462,4.628-14.157,4.628c-2.697,0-9.595-2.786-14.159-4.63c-9.362-3.78-19.973-8.065-31.918-8.065
		c-4.857,0-9.563,0.728-13.984,2.164c-17.857,5.798-27.419,21.215-34.4,32.473c-2.305,3.716-6.161,9.935-8.03,11.352
		c-1.95,1.398-9.199,3.195-13.536,4.271c-12.771,3.166-30.264,7.502-41.194,22.521c-10.86,14.922-9.612,32.825-8.701,45.896
		c0.315,4.525,0.843,12.099,0.08,14.45c-0.785,2.148-5.372,7.57-8.115,10.813C73.438,223.068,61.654,236.998,61.654,256
		s11.783,32.932,20.388,43.105c2.741,3.24,7.328,8.663,8.104,10.783c0.773,2.381,0.246,9.954-0.069,14.479
		c-0.911,13.071-2.159,30.974,8.701,45.894c10.931,15.019,28.423,19.355,41.201,22.523c4.33,1.074,11.579,2.871,13.523,4.265
		c1.875,1.421,5.731,7.64,8.037,11.357c6.98,11.257,16.541,26.674,34.399,32.472c4.423,1.436,9.128,2.164,13.984,2.164
		c11.945,0,22.556-4.285,31.918-8.065c4.564-1.844,11.463-4.63,14.159-4.63c2.697,0,9.595,2.786,14.159,4.63
		c9.362,3.78,19.973,8.065,31.918,8.065c4.857,0,9.563-0.728,13.984-2.164c17.857-5.798,27.418-21.214,34.4-32.473
		c2.304-3.716,6.16-9.935,8.03-11.352c1.952-1.4,9.203-3.196,13.54-4.271c12.771-3.166,30.261-7.502,41.19-22.521
		c10.86-14.921,9.612-32.824,8.701-45.896c-0.315-4.525-0.843-12.099-0.08-14.45C422.629,307.768,427.216,302.346,429.959,299.103z
		 M407.054,279.73c-5.545,6.553-11.277,13.33-13.733,20.892c-2.571,7.919-1.938,17.023-1.324,25.828
		c0.688,9.868,1.399,20.072-3.029,26.157c-4.5,6.183-14.491,8.66-24.156,11.056c-8.516,2.11-17.321,4.292-23.971,9.132
		c-6.555,4.77-11.292,12.41-15.874,19.8c-5.287,8.525-10.755,17.341-18.169,19.748c-1.426,0.463-3.014,0.698-4.72,0.698
		c-6.117,0-13.192-2.857-20.683-5.882c-8.292-3.35-16.866-6.813-25.395-6.813c-8.525,0-17.101,3.463-25.394,6.813
		c-7.491,3.025-14.566,5.883-20.684,5.883c-1.706,0-3.295-0.235-4.721-0.698c-7.413-2.407-12.881-11.224-18.169-19.75
		c-4.582-7.388-9.319-15.028-15.872-19.796c-6.647-4.839-15.451-7.021-23.971-9.133c-9.664-2.396-19.657-4.873-24.157-11.057
		c-4.429-6.083-3.718-16.286-3.029-26.154c0.613-8.805,1.247-17.909-1.325-25.831c-2.456-7.56-8.188-14.336-13.733-20.893
		c-6.534-7.725-13.291-15.713-13.291-23.729s6.757-16.004,13.292-23.73c5.545-6.553,11.277-13.33,13.733-20.892
		c2.571-7.919,1.938-17.023,1.324-25.828c-0.688-9.868-1.399-20.072,3.029-26.157c4.5-6.184,14.493-8.661,24.164-11.058
		c8.513-2.111,17.316-4.293,23.963-9.131c6.554-4.769,11.291-12.409,15.874-19.798c5.287-8.526,10.755-17.342,18.169-19.75
		c1.426-0.463,3.014-0.698,4.72-0.698c6.117,0,13.192,2.857,20.683,5.882c8.292,3.35,16.866,6.813,25.395,6.813
		c8.523,0,17.098-3.462,25.394-6.813c7.491-3.025,14.566-5.883,20.684-5.883c1.706,0,3.294,0.235,4.72,0.698
		c7.414,2.407,12.881,11.224,18.168,19.749c4.582,7.389,9.32,15.029,15.874,19.798c6.647,4.839,15.451,7.021,23.971,9.133
		c9.664,2.396,19.657,4.873,24.158,11.057c4.426,6.081,3.716,16.283,3.028,26.152c-0.614,8.804-1.249,17.908,1.324,25.833
		c2.456,7.562,8.189,14.338,13.733,20.892c6.534,7.726,13.292,15.714,13.292,23.73S413.589,272.004,407.054,279.73z"/>
	<polygon points="229.647,270.566 239.638,270.566 234.642,237.19 	"/>
	<path d="M256,141c-63.513,0-115,51.487-115,115s51.487,115,115,115s115-51.487,115-115S319.513,141,256,141z M189.831,298.946
		c-13.142,0-20.375-7.73-20.375-21.77v-2.418c0-2.142,1.74-3.877,3.878-3.877h6.93c2.141,0,3.879,1.735,3.879,3.877v3.232
		c0,5.833,2.697,6.619,5.34,6.619c2.637,0,5.34-0.786,5.34-6.619c0-7.121-5.131-11.81-10.553-16.777
		c-6.781-6.203-14.465-13.231-14.465-26.388c0-14.04,7.155-21.771,20.14-21.771c12.833,0,19.972,7.548,20.143,21.269
		c0.02,0.157,0.028,0.316,0.028,0.475c0,2.145-1.739,3.881-3.877,3.881c-0.005,0-0.022,0.001-0.028,0h-6.929
		c-2.145,0-3.883-1.736-3.883-3.881v-0.786c0-5.936-2.573-6.736-5.101-6.736s-5.106,0.8-5.106,6.736
		c0,7.124,5.124,11.81,10.55,16.776c6.779,6.206,14.463,13.232,14.463,26.389C210.204,291.216,202.973,298.946,189.831,298.946z
		 M259.081,297.553c-0.753,0.882-1.856,1.392-3.016,1.392h-7.825c-1.963,0-3.63-1.437-3.922-3.378l-1.755-11.726h-13.774
		l-1.758,11.726c-0.287,1.941-1.955,3.378-3.92,3.378h-6.633c-1.161,0-2.265-0.51-3.016-1.392c-0.756-0.883-1.082-2.053-0.897-3.199
		l12.472-77.961c0.308-1.922,1.967-3.338,3.912-3.338h14.642c1.947,0,3.604,1.416,3.913,3.338l12.473,77.961
		C260.163,295.5,259.832,296.67,259.081,297.553z M301.158,294.98c0,2.189-1.775,3.965-3.964,3.965h-29.323
		c-2.188,0-3.963-1.776-3.963-3.965v-77.959c0-2.189,1.774-3.965,3.963-3.965h7.797c2.19,0,3.967,1.776,3.967,3.965v67.389h17.56
		c2.188,0,3.964,1.775,3.964,3.964V294.98z M342.544,217.021v6.606c0,2.189-1.774,3.964-3.966,3.964h-18.631v20.547h13.993
		c2.19,0,3.964,1.775,3.964,3.965v6.607c0,2.189-1.773,3.964-3.964,3.964h-13.993v21.736h18.631c2.191,0,3.966,1.775,3.966,3.964
		v6.606c0,2.189-1.774,3.965-3.966,3.965h-30.391c-2.19,0-3.964-1.776-3.964-3.965v-77.959c0-2.189,1.773-3.965,3.964-3.965h30.391
		C340.77,213.055,342.544,214.832,342.544,217.021z"/>
</g>
</svg>
