<?xml version="1.0" encoding="utf-8"?>
<!-- Generator: Adobe Illustrator 16.0.0, SVG Export Plug-In . SVG Version: 6.00 Build 0)  -->
<!DOCTYPE svg PUBLIC "-//W3C//DTD SVG 1.1//EN" "http://www.w3.org/Graphics/SVG/1.1/DTD/svg11.dtd">
<svg version="1.1" id="Layer_1" xmlns="http://www.w3.org/2000/svg" xmlns:xlink="http://www.w3.org/1999/xlink" x="0px" y="0px"
	 width="512px" height="512px" viewBox="0 0 512 512" enable-background="new 0 0 512 512" xml:space="preserve">
<g>
	<path d="M291.799,213.07c-1.723-0.752-3.738-0.158-4.779,1.404l-52.037,78.473c-6.389,2.683-11.803,7.718-14.783,14.577
		c-6.16,14.133,0.307,30.577,14.441,36.734c14.135,6.161,30.588-0.306,36.744-14.44c2.99-6.844,3-14.247,0.616-20.757l22.02-91.517
		C294.462,215.701,293.525,213.814,291.799,213.07z"/>
	<path d="M303.427,151.66l-0.88-0.286c-9.998-3.251-18.944-5.384-27.346-6.507c-6.947-0.958-14.188-1.425-21.511-1.425
		c-2.479,0-5.03,0.063-7.563,0.16c-7.198,0.304-14.547,1.229-21.846,2.789c-5.326,1.125-9.992,2.345-14.26,3.693
		c-3.185,1.013-6.251,2.104-9.879,3.434c-0.871,0.323-1.576,0.979-1.967,1.815c-0.388,0.843-0.428,1.81-0.1,2.68l6.394,17.193
		c0.33,0.866,0.993,1.566,1.846,1.962c1.242,0.574,3.268-0.177,3.588-0.27c4.71-1.529,8.607-2.614,12.277-3.432
		c5.339-1.187,9.692-1.908,13.686-2.275c2.891-0.266,6.011-0.472,9.806-0.664c0.966-0.048,1.972-0.069,3.07-0.069
		c2.479,0,4.985,0.117,7.763,0.267c4.306,0.224,8.847,0.772,14.287,1.737c6.968,1.212,14.103,3.248,23.137,6.588
		c0.388,0.138,0.797,0.204,1.211,0.204c0.507,0,1.016-0.109,1.488-0.334c0.848-0.397,1.502-1.121,1.809-2.016l7.203-20.797
		c0.307-0.864,0.245-1.848-0.168-2.687C305.053,152.584,304.316,151.949,303.427,151.66z"/>
	<path d="M166.089,176.688c-0.591-0.73-1.451-1.186-2.385-1.275c-0.935-0.088-1.859,0.21-2.574,0.813
		c-4.541,3.841-10.453,9.012-15.914,15.028c-5.925,6.505-11.291,13.521-15.949,20.867c-5.727,9.035-10.245,18.175-13.423,27.147
		c-1.337,3.758-3.032,8.73-4.339,13.855c-0.913,3.582-1.671,7.202-2.309,10.299c-0.185,0.911,0,1.855,0.509,2.626
		c0.515,0.785,1.314,1.314,2.219,1.508l12.657,2.537c0.222,0.044,0.446,0.067,0.673,0.068c0.003,0,0.014,0,0.023,0
		c2.694,0,3.244-2.029,3.936-4.595c0.32-1.171,0.717-2.669,1.066-3.985c0.373-1.406,0.681-2.589,0.759-2.854
		c2.55-8.604,6.25-17.256,11-25.68c4.311-7.668,9.63-14.974,16.26-22.364c5.854-6.527,12.569-12.023,17.763-16.105
		c0.742-0.571,1.217-1.415,1.319-2.348c0.106-0.935-0.167-1.872-0.758-2.598L166.089,176.688z"/>
	<path d="M400.958,304.467l-28.525-2.967c-1.793-0.194-3.439,1.031-3.781,2.797l-1.552,7.939c-0.723,3.514-1.668,6.916-2.669,10.503
		c-0.315,1.122-0.626,2.26-0.934,3.382c-1.715,6.333-6.47,16.928-10.167,22.669c-0.535,0.829-0.692,1.829-0.446,2.791
		c0.251,0.945,0.887,1.733,1.756,2.196l27.487,14.379c0.499,0.264,1.056,0.397,1.617,0.397c0.362,0,0.725-0.05,1.075-0.159
		c0.891-0.297,1.629-0.925,2.047-1.77l2.351-4.716c4.077-8.155,7.42-17.166,10.236-27.521c2.581-9.478,3.823-18.905,4.615-26.054
		c0.099-0.922-0.167-1.859-0.75-2.581C402.736,305.036,401.882,304.579,400.958,304.467z"/>
	<path d="M365.235,258.859c0.769,3.078,1.518,6.434,2.307,10.259c0.187,0.925,0.736,1.714,1.527,2.225
		c0.563,0.369,1.22,0.553,1.892,0.553c0.251,0,0.509-0.022,0.769-0.086l26.654-5.988c0.914-0.217,1.706-0.785,2.2-1.579
		c0.494-0.796,0.642-1.759,0.418-2.679c-2.198-8.932-4.453-16.248-7.112-22.993c-3.243-8.231-7.44-16.453-12.826-25.137
		c-2.31-3.731-5.012-7.577-8.507-12.114c-3.156-4.088-6.407-7.861-9.662-11.2c-2.804-2.862-6.54-6.607-10.619-10.112
		c-2.826-2.424-5.749-4.729-8.266-6.706c-0.727-0.559-1.66-0.823-2.581-0.708c-0.922,0.115-1.76,0.576-2.327,1.319l-14.47,18.625
		c-1.145,1.483-0.925,3.602,0.505,4.812c0,0.004,2.672,2.264,3.934,3.36c3.049,2.646,6.124,5.698,9.4,9.32
		c3.715,4.108,6.506,7.561,8.785,10.867c5.833,8.459,10.252,16.543,13.529,24.708C362.852,250.781,364.267,254.99,365.235,258.859z"
		/>
	<path d="M138.775,350.75c-1.024-2.067-1.974-4.184-2.847-6.165c-1.674-3.824-3.246-8.155-4.947-13.604
		c-2.735-8.786-3.979-17.898-4.837-25.655c-0.101-0.923-0.574-1.783-1.311-2.354c-0.737-0.589-1.678-0.837-2.611-0.727
		l-11.269,1.474c-0.934,0.117-1.772,0.616-2.339,1.36c-0.562,0.748-0.803,1.695-0.663,2.619l0.223,1.501
		c1.67,11.116,3.822,20.073,6.76,28.177c1.513,4.156,3.364,9.035,5.651,13.764c1.535,3.161,3.25,6.448,5.558,10.658
		c0.442,0.819,1.2,1.459,2.09,1.718c0.32,0.089,0.64,0.132,0.967,0.132c0.59,0,1.175-0.178,1.692-0.478l8.112-4.491
		c1.628-0.901,2.263-2.944,1.429-4.615L138.775,350.75z"/>
	<path d="M404.576,157.041C364.904,116.525,312.139,94.213,256,94.213s-108.904,22.313-148.576,62.828
		C67.813,197.491,46,251.259,46,308.437c0,36.177,9.02,71.948,26.084,103.452c1.967,3.635,5.767,5.898,9.896,5.898h348.038
		c4.13,0,7.93-2.264,9.897-5.898C456.98,380.385,466,344.613,466,308.437C466,251.259,444.187,197.491,404.576,157.041z
		 M423.183,395.272H88.818c-13.303-26.752-20.308-56.632-20.308-86.836c0-105.713,84.107-191.713,187.49-191.713
		s187.49,86,187.49,191.713C443.49,338.641,436.485,368.521,423.183,395.272z"/>
</g>
</svg>
