<?xml version="1.0" encoding="utf-8"?>
<!-- Generator: Adobe Illustrator 16.0.0, SVG Export Plug-In . SVG Version: 6.00 Build 0)  -->
<!DOCTYPE svg PUBLIC "-//W3C//DTD SVG 1.1//EN" "http://www.w3.org/Graphics/SVG/1.1/DTD/svg11.dtd">
<svg version="1.1" id="Layer_1" xmlns="http://www.w3.org/2000/svg" xmlns:xlink="http://www.w3.org/1999/xlink" x="0px" y="0px"
	 width="512px" height="512px" viewBox="0 0 512 512" enable-background="new 0 0 512 512" xml:space="preserve">
<g>
	<path d="M399.513,121.333h-63.829v-8.029c0-30.11-24.499-54.609-54.609-54.609h-50.148c-30.11,0-54.609,24.499-54.609,54.609v8.029
		h-63.829c-28.436,0-51.487,23.05-51.487,51.487v80.618c0,28.437,23.052,51.489,51.487,51.489h287.025
		c28.434,0,51.487-23.052,51.487-51.489v-80.618C451,144.384,427.946,121.333,399.513,121.333z M212.598,113.304
		c0-10.107,8.223-18.33,18.328-18.33h50.148c10.105,0,18.328,8.223,18.328,18.33v8.029h-86.805V113.304z"/>
	<path d="M381.164,332.137v8.634c0,17.282-14.01,31.291-31.293,31.291c-17.28,0-31.289-14.009-31.289-31.291v-8.634H193.418v8.634
		c0,17.282-14.009,31.291-31.289,31.291c-17.283,0-31.293-14.009-31.293-31.291v-8.634h-18.349c-10.854,0-21.201-2.209-30.618-6.201
		v72.951c0,30.053,24.362,54.418,54.418,54.418h239.426c30.056,0,54.418-24.365,54.418-54.418v-72.951
		c-9.417,3.992-19.764,6.201-30.618,6.201H381.164z"/>
</g>
</svg>
