<?xml version="1.0" encoding="utf-8"?>
<!-- Generator: Adobe Illustrator 16.0.0, SVG Export Plug-In . SVG Version: 6.00 Build 0)  -->
<!DOCTYPE svg PUBLIC "-//W3C//DTD SVG 1.1//EN" "http://www.w3.org/Graphics/SVG/1.1/DTD/svg11.dtd">
<svg version="1.1" id="Layer_1" xmlns="http://www.w3.org/2000/svg" xmlns:xlink="http://www.w3.org/1999/xlink" x="0px" y="0px"
	 width="512px" height="512px" viewBox="0 0 512 512" enable-background="new 0 0 512 512" xml:space="preserve">
<g>
	<path d="M227.701,237.625c2.455,0,4.869,0.193,7.223,0.561l36.998-36.998c-13.193-7.048-28.248-11.051-44.221-11.051
		c-51.92,0-94.162,42.241-94.162,94.162s42.242,94.162,94.162,94.162s94.16-42.241,94.16-94.162c0-15.973-4.002-31.027-11.049-44.22
		l-36.998,36.998c0.367,2.355,0.559,4.766,0.559,7.222c0,25.736-20.936,46.674-46.672,46.674s-46.674-20.938-46.674-46.674
		S201.965,237.625,227.701,237.625z"/>
	<path d="M338.514,212.376c13.488,20.712,21.338,45.416,21.338,71.922c0,72.87-59.281,132.153-132.15,132.153
		S95.549,357.168,95.549,284.299c0-72.869,59.283-132.153,132.152-132.153c26.508,0,51.211,7.851,71.924,21.34l34.104-34.104
		c-29.738-21.817-66.402-34.724-106.027-34.724c-99.055,0-179.641,80.587-179.641,179.641c0,99.054,80.586,179.641,179.641,179.641
		S407.34,383.353,407.34,284.299c0-39.626-12.904-76.289-34.721-106.026L338.514,212.376z"/>
	<path d="M463.475,104.699c-1.119-3.539-4.119-6.157-7.775-6.793l-35.449-6.157l-6.156-35.45c-0.637-3.656-3.256-6.655-6.793-7.774
		c-3.537-1.122-7.404-0.178-10.029,2.447l-27.412,27.411c-1.863,1.864-2.91,4.393-2.912,7.029l0.002,40.896L218.852,274.404
		c-5.176,5.176-5.176,13.566,0,18.743c5.178,5.175,13.568,5.176,18.744,0l148.096-148.096h40.896c2.635,0,5.164-1.047,7.027-2.911
		l27.412-27.413C463.652,112.104,464.596,108.237,463.475,104.699z"/>
</g>
</svg>
