<?xml version="1.0" encoding="utf-8"?>
<!-- Generator: Adobe Illustrator 16.0.0, SVG Export Plug-In . SVG Version: 6.00 Build 0)  -->
<!DOCTYPE svg PUBLIC "-//W3C//DTD SVG 1.1//EN" "http://www.w3.org/Graphics/SVG/1.1/DTD/svg11.dtd">
<svg version="1.1" id="Layer_1" xmlns="http://www.w3.org/2000/svg" xmlns:xlink="http://www.w3.org/1999/xlink" x="0px" y="0px"
	 width="512px" height="512px" viewBox="0 0 512 512" enable-background="new 0 0 512 512" xml:space="preserve">
<g>
	<path d="M384.227,272.365c-9.891-12.093-26.1-18.699-46.961-19.219c-0.576-4.976-4.797-8.841-9.928-8.841H127.246
		c-5.523,0-10,4.478-10,10v116c0,23.044,12.86,43.684,33.561,53.865l0,0.001c-1.004,2.393-1.513,4.928-1.513,7.535
		c0,10.752,8.747,19.499,19.499,19.499h116.999c10.752,0,19.499-8.747,19.499-19.499c0-2.607-0.509-5.143-1.513-7.536
		c17.709-8.71,29.672-25.076,32.762-44.052c17.111-3.789,31.613-13.604,42.518-28.944c10.125-14.245,13.489-28.245,13.84-29.795
		l0.071-0.333C397.058,300.834,394.116,284.455,384.227,272.365z M363.613,314.854c-0.256,0.999-2.717,10.089-9.008,18.94
		c-4.866,6.846-10.583,11.714-17.266,14.666v-65.313c7.533,0.276,18.461,1.846,23.667,8.21
		C364.893,296.11,365.769,304.016,363.613,314.854z"/>
	<path d="M183.097,132.042c16.242,1.886,32.799,2.14,46.854,2.14c4.57,0,9.141-0.028,13.709-0.057
		c7.102-0.044,14.195-0.088,21.276-0.025l1.063,0.004c1.804,0,3.911-0.033,6.106-0.068c2.281-0.037,4.658-0.075,6.889-0.078
		c-4.371,0.859-9.685,1.808-14.43,2.654c-9.555,1.706-19.436,3.47-26.543,5.152l-1.336,0.315
		c-13.799,3.253-34.651,8.169-41.382,23.084c-2.649,5.745-2.456,12.306,0.529,17.999c3.149,6.007,8.968,10.282,15.567,11.436
		c2.307,0.403,4.787,0.788,7.483,0.788c4.389,0,8.791-0.398,12.996-1.225c21.754-4.275,21.941,1.369,21.95,1.958
		c0.06,3.698-7.134,10.097-10.206,12.83c-0.659,0.586-1.214,1.08-1.614,1.46c-0.801,0.76-1.744,1.601-2.763,2.51
		c-6.228,5.555-14.757,13.163-13.723,21.484c0.125,1.004,0.979,1.753,1.984,1.753c0.019,0,0.037,0,0.055-0.001
		c1.03-0.027,1.87-0.833,1.941-1.86c0.238-3.423,3.58-6.422,6.69-8.962c2.954-2.401,6.159-4.639,9.258-6.802
		c1.293-0.901,2.585-1.804,3.866-2.721l0.099-0.07c5.674-4.061,15.17-10.856,16.458-18.999c0.517-3.267-0.316-6.408-2.477-9.337
		c-6.008-8.143-16.83-8.824-26.501-8.824l-0.776,0.001c-1.714,0.004-3.438,0.046-5.166,0.087c-1.788,0.044-3.579,0.088-5.368,0.088
		c-3.083,0-5.57-0.133-7.826-0.429c-4.518-0.593-6.049-2.999-4.992-4.799c3.143-5.351,18.979-10.081,47.548-13.787
		c1.553-0.202,2.772-0.36,3.557-0.479c1.752-0.269,3.51-0.529,5.27-0.791c10.119-1.502,20.582-3.057,30.581-6.02
		c17.827-5.285,21.239-14.262,20.848-21.073c-0.001-0.045-0.003-0.091-0.006-0.138l0.007-0.001l-0.022-0.212
		c-0.01-0.123-0.023-0.252-0.037-0.389c-0.001-0.011-0.002-0.022-0.004-0.033c0-0.002,0-0.004,0-0.006c0-0.001,0-0.001,0-0.001
		c0-0.003,0-0.005-0.001-0.007c0,0,0,0,0-0.001c-0.81-7.098-5.737-12.895-13.521-15.905c-11.277-4.363-24.505-4.412-36.176-4.455
		l-3.051-0.014c-9.985-0.067-20.145,0.153-29.961,0.363c-8.592,0.184-17.477,0.373-26.202,0.373c-8.717,0-16.392-0.191-23.462-0.586
		c-5.451-0.304-11.898-0.775-18.388-1.969c-4.888-0.9-10.97-2.021-14.837-5.292c-3.493-2.955,0.141-9.474,2.55-12.507
		c7.3-9.19,20.063-12.998,31.585-15.511c10.572-2.306,22.148-3.532,36.433-3.861c9.177-0.21,18.124,0.017,26.625,0.673
		c0.052,0.004,0.104,0.006,0.156,0.006c0.006,0,0.013,0.003,0.019,0c1.104,0,2-0.896,2-2c0-0.967-0.686-1.773-1.598-1.96
		c-16.341-4.68-33.712-7.152-50.248-7.152c-5.104,0-10.193,0.233-15.124,0.694c-18.993,1.774-43.347,8.564-51.509,30.84
		c-2.766,7.548-2.371,14.292,1.173,20.047C144.821,125.118,166.387,130.104,183.097,132.042z"/>
</g>
</svg>
