<?xml version="1.0" encoding="utf-8"?>
<!-- Generator: Adobe Illustrator 16.0.0, SVG Export Plug-In . SVG Version: 6.00 Build 0)  -->
<!DOCTYPE svg PUBLIC "-//W3C//DTD SVG 1.1//EN" "http://www.w3.org/Graphics/SVG/1.1/DTD/svg11.dtd">
<svg version="1.1" id="Layer_1" xmlns="http://www.w3.org/2000/svg" xmlns:xlink="http://www.w3.org/1999/xlink" x="0px" y="0px"
	 width="512px" height="512px" viewBox="0 0 512 512" enable-background="new 0 0 512 512" xml:space="preserve">
<path d="M393.314,103.584c-19.071-23.861-68.609-64.246-133.306-64.246c-43.259,0-84.422,18.086-122.344,53.752
	c-0.065,0.063-0.129,0.125-0.191,0.189c-36.981,38.043-32.149,73.184-26.028,117.699c0.377,2.738,0.758,5.514,1.137,8.332
	c1.014,7.566-5.607,19.236-12.012,30.521c-9.622,16.959-19.572,34.494-7.416,42.777c20.771,14.158,24.38,42.02,27.872,68.979
	c0.829,6.402,1.688,13.023,2.761,19.459c1.85,11.104,11.219,16.502,28.641,16.502c7.747,0,16.021-0.957,24.027-1.883
	c6.861-0.793,13.343-1.541,18.53-1.541c2.9,0,5.165,0.23,6.925,0.707c20.933,5.674,39.221,47.998,45.83,73.346
	c0.537,2.057,2.121,3.676,4.166,4.256c0.541,0.154,1.092,0.229,1.64,0.229c1.522,0,3.012-0.578,4.144-1.658L364.98,368.609
	c1.66-1.586,2.271-3.98,1.572-6.168c-9.473-29.639,10.213-58.566,27.587-84.1c7.581-11.141,14.741-21.662,19.638-32.025
	C436.367,198.504,420.095,137.094,393.314,103.584z M198.287,226.024l-4.654,2.583c-0.299,0.167-0.636,0.272-0.973,0.272
	c-0.188,0-0.372-0.024-0.555-0.078c-0.513-0.146-0.946-0.515-1.201-0.984c-1.326-2.413-2.309-4.305-3.189-6.116
	c-1.313-2.718-2.377-5.518-3.244-7.902c-1.688-4.649-2.922-9.794-3.88-16.171l-0.13-0.863c-0.078-0.531,0.059-1.076,0.382-1.504
	c0.324-0.429,0.808-0.712,1.343-0.783l6.469-0.843c0.535-0.065,1.074,0.08,1.496,0.415c0.424,0.326,0.695,0.822,0.755,1.354
	c0.493,4.45,1.206,9.685,2.776,14.725c0.976,3.126,1.879,5.613,2.84,7.808c0.5,1.138,1.045,2.355,1.635,3.541l0.951,1.902
	C199.586,224.339,199.223,225.507,198.287,226.024z M220.313,130.491c-0.059,0.531-0.333,1.021-0.756,1.349
	c-2.983,2.338-6.838,5.492-10.195,9.238c-3.807,4.242-6.859,8.44-9.335,12.838c-2.728,4.84-4.85,9.802-6.313,14.743
	c-0.046,0.152-0.222,0.83-0.437,1.636c-0.201,0.753-0.428,1.617-0.611,2.29c-0.397,1.471-0.713,2.637-2.26,2.637
	c-0.005,0-0.01,0-0.016,0c-0.128-0.001-0.258-0.013-0.385-0.038l-7.262-1.461c-0.522-0.11-0.98-0.415-1.275-0.861
	c-0.293-0.443-0.399-0.985-0.292-1.513c0.366-1.776,0.802-3.852,1.325-5.905c0.75-2.943,1.723-5.799,2.49-7.957
	c1.826-5.152,4.418-10.393,7.705-15.581c2.672-4.218,5.754-8.246,9.154-11.98c3.135-3.448,6.527-6.418,9.135-8.62
	c0.41-0.352,0.941-0.518,1.479-0.467c0.535,0.051,1.029,0.313,1.369,0.731l6.045,7.43
	C220.217,129.417,220.373,129.951,220.313,130.491z M287.265,145.015l-12.642,52.531c1.369,3.735,1.363,7.984-0.354,11.917
	c-3.533,8.11-12.977,11.824-21.089,8.287c-8.114-3.535-11.825-12.975-8.29-21.087c1.713-3.938,4.818-6.828,8.485-8.367l29.87-45.037
	c0.596-0.896,1.754-1.24,2.742-0.808C286.979,142.881,287.517,143.96,287.265,145.015z M293.932,109.758l-4.135,11.937
	c-0.177,0.508-0.551,0.924-1.037,1.154c-0.271,0.128-0.564,0.192-0.855,0.192c-0.236,0-0.472-0.04-0.695-0.119
	c-5.186-1.916-9.281-3.081-13.281-3.781c-3.121-0.55-5.729-0.866-8.198-0.996c-1.594-0.084-3.032-0.155-4.457-0.155
	c-0.63,0-1.206,0.014-1.761,0.042c-2.178,0.109-3.969,0.231-5.627,0.384c-2.296,0.207-4.793,0.622-7.856,1.303
	c-2.106,0.471-4.347,1.096-7.048,1.968c-0.182,0.059-1.348,0.489-2.061,0.158c-0.487-0.228-0.871-0.628-1.061-1.128l-3.668-9.869
	c-0.188-0.495-0.166-1.051,0.057-1.535c0.224-0.484,0.63-0.858,1.129-1.042c2.083-0.766,3.844-1.391,5.67-1.97
	c2.452-0.778,5.129-1.474,8.188-2.12c4.189-0.895,8.406-1.429,12.537-1.6c1.456-0.063,2.92-0.095,4.34-0.095
	c4.205,0,8.359,0.269,12.348,0.813c4.824,0.647,9.959,1.872,15.697,3.735l0.506,0.165c0.51,0.167,0.932,0.532,1.172,1.014
	C294.072,108.695,294.107,109.255,293.932,109.758z M312.775,140.702c-1.879-2.075-3.644-3.826-5.396-5.348
	c-0.723-0.629-2.258-1.924-2.258-1.928c-0.82-0.693-0.945-1.913-0.289-2.759l8.307-10.693c0.325-0.423,0.808-0.691,1.336-0.759
	c0.527-0.066,1.063,0.084,1.479,0.41c1.444,1.134,3.122,2.454,4.745,3.848c2.342,2.009,4.486,4.16,6.096,5.807
	c1.868,1.913,3.734,4.075,5.545,6.424c2.007,2.604,3.559,4.812,4.883,6.952c3.092,4.985,5.502,9.702,7.363,14.433
	c1.523,3.871,2.82,8.067,4.082,13.198c0.129,0.525,0.041,1.077-0.24,1.534c-0.283,0.457-0.739,0.781-1.264,0.904l-15.299,3.442
	c-0.147,0.035-0.297,0.051-0.439,0.051c-0.387,0-0.764-0.111-1.088-0.321c-0.453-0.294-0.769-0.749-0.876-1.278
	c-0.45-2.194-0.882-4.117-1.323-5.884c-0.557-2.224-1.367-4.642-2.557-7.607c-1.88-4.691-4.416-9.331-7.764-14.184
	C316.51,145.044,314.908,143.06,312.775,140.702z M350.428,197.127c-0.454,4.104-1.167,9.514-2.648,14.955
	c-1.616,5.946-3.535,11.115-5.877,15.796l-1.348,2.712c-0.24,0.48-0.664,0.846-1.176,1.011c-0.201,0.063-0.408,0.095-0.616,0.095
	c-0.321,0-0.641-0.077-0.931-0.229l-15.773-8.254c-0.499-0.266-0.864-0.72-1.008-1.262c-0.143-0.548-0.051-1.126,0.254-1.601
	c2.124-3.298,4.852-9.378,5.836-13.012c0.178-0.647,0.357-1.295,0.536-1.941c0.574-2.059,1.117-4.01,1.532-6.026l0.891-4.558
	c0.197-1.018,1.141-1.717,2.172-1.609l16.371,1.705c0.531,0.063,1.02,0.326,1.354,0.741
	C350.331,196.065,350.484,196.599,350.428,197.127z"/>
</svg>
