<?xml version="1.0" encoding="utf-8"?>
<!-- Generator: Adobe Illustrator 16.0.0, SVG Export Plug-In . SVG Version: 6.00 Build 0)  -->
<!DOCTYPE svg PUBLIC "-//W3C//DTD SVG 1.1//EN" "http://www.w3.org/Graphics/SVG/1.1/DTD/svg11.dtd">
<svg version="1.1" id="Layer_1" xmlns="http://www.w3.org/2000/svg" xmlns:xlink="http://www.w3.org/1999/xlink" x="0px" y="0px"
	 width="512px" height="512px" viewBox="0 0 512 512" enable-background="new 0 0 512 512" xml:space="preserve">
<g>
	<path d="M348.688,235.447c-67.547,0-122.501,54.953-122.501,122.499c0,67.547,54.954,122.5,122.501,122.5
		c67.546,0,122.499-54.953,122.499-122.5C471.187,290.4,416.233,235.447,348.688,235.447z M348.688,448.542
		c-49.954,0-90.595-40.641-90.595-90.596s40.641-90.596,90.595-90.596c49.955,0,90.596,40.641,90.596,90.596
		S398.643,448.542,348.688,448.542z"/>
	<path d="M348.603,280.295c-8.138,0-14.758,6.616-14.758,14.748v48.145h-29.36c-8.13,0-14.743,6.62-14.743,14.758
		c0,8.136,6.613,14.754,14.743,14.754h44.118c8.138,0,14.758-6.618,14.758-14.754v-62.902
		C363.36,286.912,356.74,280.295,348.603,280.295z"/>
	<path d="M269.887,212.527c0-8.563-6.941-15.506-15.505-15.506c-20.161,0-30.705-11.269-44.055-25.535
		c-9.412-10.058-19.145-20.46-32.983-27.099l-20.287-9.529l-7.896-6.725c-0.541-0.462-1.341-0.429-1.844,0.078l-12.509,12.568
		c-0.507,0.523-0.368,1.275-0.368,1.275l12.14,81.42c0.076,0.545-0.079,1.095-0.427,1.521l-11.484,14.031
		c-0.375,0.459-0.935,0.723-1.525,0.723s-1.15-0.264-1.524-0.723l-11.483-14.031c-0.349-0.426-0.503-0.976-0.428-1.521l12.115-81.42
		c0,0,0.137-0.752-0.369-1.275l-12.508-12.568c-0.504-0.507-1.304-0.54-1.845-0.078l-7.896,6.725l-21.267,10.111
		c-31.131,15.814-36.663,59.643-43.036,110.325c-1.213,9.647-2.468,19.624-3.923,29.546c-1.242,8.475,4.619,16.35,13.092,17.592
		c0.763,0.111,1.521,0.166,2.27,0.166c7.567,0,14.191-5.547,15.322-13.258c1.501-10.24,2.775-20.373,4.008-30.174
		c2.334-18.558,4.71-37.406,8.397-52.899l0.016,65.858c0,8.436,2.963,15.949,7.741,22.227l0.011,167.971
		c0,10.316,8.363,18.678,18.68,18.678c10.317,0,18.679-8.363,18.678-18.68l-0.008-148.078c1.327,0.111,2.648,0.176,3.957,0.176
		c1.308,0,2.629-0.064,3.957-0.176l-0.002,148.078c-0.001,10.316,8.361,18.68,18.679,18.68c10.315,0,18.679-8.363,18.679-18.68
		l0.002-167.969c4.778-6.277,7.742-13.791,7.742-22.227l0.022-85.218c1.812,1.868,3.624,3.804,5.461,5.768
		c14.741,15.752,33.086,35.357,66.699,35.357C262.945,228.033,269.887,221.091,269.887,212.527z"/>
	<path d="M133.143,126.888c22.682,0,39.611-21.136,39.995-56.577C173.382,45.717,161.671,31,133.143,31
		c-28.53,0-40.243,14.717-39.996,39.311C93.529,105.752,110.458,126.888,133.143,126.888z"/>
</g>
</svg>
