<?xml version="1.0" encoding="utf-8"?>
<!-- Generator: Adobe Illustrator 16.0.0, SVG Export Plug-In . SVG Version: 6.00 Build 0)  -->
<!DOCTYPE svg PUBLIC "-//W3C//DTD SVG 1.1//EN" "http://www.w3.org/Graphics/SVG/1.1/DTD/svg11.dtd">
<svg version="1.1" id="Layer_1" xmlns="http://www.w3.org/2000/svg" xmlns:xlink="http://www.w3.org/1999/xlink" x="0px" y="0px"
	 width="512px" height="512px" viewBox="0 0 512 512" enable-background="new 0 0 512 512" xml:space="preserve">
<path d="M375.659,154.263h58.123c10.604,0,19.201-8.597,19.201-19.201V76.938c0-10.604-8.597-19.201-19.201-19.201h-58.123
	c-10.604,0-19.201,8.597-19.201,19.201v10.275h-75.216c-8.285,0-15,6.716-15,15V241H237.76c-7.162-42.511-44.228-75-88.743-75
	c-49.626,0-90,40.373-90,90c0,49.626,40.374,90,90,90c44.516,0,81.581-32.489,88.743-75h28.482v138.787c0,8.284,6.715,15,15,15
	h75.216v10.275c0,10.604,8.597,19.201,19.201,19.201h58.123c10.604,0,19.201-8.597,19.201-19.201v-58.124
	c0-10.604-8.597-19.201-19.201-19.201h-58.123c-10.604,0-19.201,8.597-19.201,19.201v17.849h-60.216V271h60.216v14.062
	c0,10.604,8.597,19.201,19.201,19.201h58.123c10.604,0,19.201-8.597,19.201-19.201v-58.124c0-10.604-8.597-19.201-19.201-19.201
	h-58.123c-10.604,0-19.201,8.597-19.201,19.201V241h-60.216V117.213h60.216v17.849C356.458,145.666,365.055,154.263,375.659,154.263
	z M158.258,256.009c0,5.084-4.138,9.221-9.225,9.221h-32.642c-5.081,0-9.216-4.137-9.216-9.221c0-5.087,4.135-9.225,9.216-9.225
	h23.416v-39.24c0-5.083,4.138-9.221,9.226-9.221c5.087,0,9.225,4.138,9.225,9.221V256.009z"/>
</svg>
