<?xml version="1.0" encoding="utf-8"?>
<!-- Generator: Adobe Illustrator 16.0.0, SVG Export Plug-In . SVG Version: 6.00 Build 0)  -->
<!DOCTYPE svg PUBLIC "-//W3C//DTD SVG 1.1//EN" "http://www.w3.org/Graphics/SVG/1.1/DTD/svg11.dtd">
<svg version="1.1" id="Layer_1" xmlns="http://www.w3.org/2000/svg" xmlns:xlink="http://www.w3.org/1999/xlink" x="0px" y="0px"
	 width="512px" height="512px" viewBox="0 0 512 512" enable-background="new 0 0 512 512" xml:space="preserve">
<g>
	<path d="M460.051,422.548l-110.552-110.55l4.628-7.131c42.831-65.993,33.559-154.25-22.047-209.856
		c-31.607-31.606-73.702-49.012-118.531-49.012c-44.829,0-86.924,17.406-118.53,49.013c-65.358,65.357-65.358,171.702,0,237.061
		c31.457,31.458,73.661,48.782,118.835,48.782c32.597,0,64.071-9.246,91.02-26.735l7.131-4.628l110.551,110.553
		c3.843,3.842,8.952,5.958,14.386,5.958c5.434,0,10.542-2.116,14.385-5.958l8.725-8.726
		C467.983,443.387,467.983,430.48,460.051,422.548z M294.585,294.577c-21.614,21.613-50.394,33.517-81.036,33.517
		c-30.643,0-59.421-11.903-81.035-33.516c-21.613-21.615-33.517-50.393-33.517-81.035c0-30.644,11.903-59.422,33.517-81.036
		c21.614-21.613,50.393-33.516,81.035-33.516s59.421,11.902,81.036,33.516C339.266,177.189,339.266,249.894,294.585,294.577z"/>
	<path d="M215.764,137.308c-8.791,0-15.941,7.148-15.941,15.934v52.388h-31.982c-8.781,0-15.924,7.151-15.924,15.941
		c0,8.786,7.143,15.933,15.924,15.933h47.923c8.791,0,15.941-7.147,15.941-15.933v-68.33
		C231.705,144.456,224.554,137.308,215.764,137.308z"/>
</g>
</svg>
