<?xml version="1.0" encoding="utf-8"?>
<!-- Generator: Adobe Illustrator 16.0.0, SVG Export Plug-In . SVG Version: 6.00 Build 0)  -->
<!DOCTYPE svg PUBLIC "-//W3C//DTD SVG 1.1//EN" "http://www.w3.org/Graphics/SVG/1.1/DTD/svg11.dtd">
<svg version="1.1" id="Layer_1" xmlns="http://www.w3.org/2000/svg" xmlns:xlink="http://www.w3.org/1999/xlink" x="0px" y="0px"
	 width="512px" height="512px" viewBox="0 0 512 512" enable-background="new 0 0 512 512" xml:space="preserve">
<g>
	<path d="M399.334,61.152H232.666c-8.641,0-15.747,6.576-16.58,15h71.026c15.316,0,27.775,12.462,27.775,27.778v125.556
		c0,21.453-3.405,41.252-15.504,57.127l-0.008,92.568h-34.997c-9.203,0-16.666,7.464-16.666,16.666
		c0,9.207,7.463,16.666,16.666,16.666h103.328c9.203,0,16.666-7.459,16.666-16.666c0-9.202-7.463-16.666-16.666-16.666H332.71
		v-92.476c45.929-0.022,83.29-37.396,83.29-83.332V77.818C416,68.614,408.537,61.152,399.334,61.152z"/>
	<path d="M247.663,417.514h-34.997V317.262c45.952,0,83.334-37.382,83.334-83.331V108.374c0-9.207-7.463-16.665-16.666-16.665
		H112.666c-9.203,0-16.666,7.458-16.666,16.665v125.557c0,45.949,37.382,83.331,83.334,83.331v100.252h-34.997
		c-9.206,0-16.668,7.463-16.668,16.668c0,9.204,7.462,16.666,16.668,16.666h103.326c9.206,0,16.668-7.462,16.668-16.666
		C264.331,424.977,256.869,417.514,247.663,417.514z M129.334,233.931V125.04h133.332v108.891c0,27.568-22.428,50-50,50h-33.332
		C151.762,283.931,129.334,261.499,129.334,233.931z"/>
</g>
</svg>
