<?xml version="1.0" encoding="utf-8"?>
<!-- Generator: Adobe Illustrator 16.0.0, SVG Export Plug-In . SVG Version: 6.00 Build 0)  -->
<!DOCTYPE svg PUBLIC "-//W3C//DTD SVG 1.1//EN" "http://www.w3.org/Graphics/SVG/1.1/DTD/svg11.dtd">
<svg version="1.1" id="Layer_1" xmlns="http://www.w3.org/2000/svg" xmlns:xlink="http://www.w3.org/1999/xlink" x="0px" y="0px"
	 width="512px" height="512px" viewBox="0 0 512 512" enable-background="new 0 0 512 512" xml:space="preserve">
<g>
	<path d="M426.061,398.087h-98.135v-7.937c6.968-4.52,11.397-12.329,11.397-21.01c0-13.819-11.245-25.063-25.067-25.063h-23.63
		c5.481-2.007,9.062-7.575,8.311-13.615L284.685,216.32c3.087-4.218,4.985-9.223,4.985-14.816l0.019-71.041
		c29.054-11.022,66.911-39.934,71.65-43.6c4.649-3.597,5.502-10.28,1.907-14.929c-3.597-4.648-10.281-5.502-14.93-1.908
		c-12.146,9.391-45.336,32.976-67.113,40.899c-0.644-0.299-8.17-3.79-10.635-4.933l-4.72-3.978
		c-0.325-0.275-0.801-0.254-1.104,0.045l-7.477,7.437c-0.302,0.31-0.219,0.752-0.219,0.752l1.13,7.098l7.042,50.766
		c0.053,0.374-0.054,0.752-0.293,1.043l-7.882,9.632c-0.255,0.314-0.64,0.496-1.047,0.496c-0.406,0-0.791-0.182-1.048-0.496
		l-7.88-9.632c-0.241-0.291-0.346-0.669-0.293-1.043l5.509-39.708l2.877-18.083c0,0,0.097-0.532-0.206-0.823l-7.478-7.438
		c-0.145-0.147-0.338-0.226-0.532-0.236c-0.005-0.001-0.005-0.005-0.005-0.009l-0.012,0.009c-0.196-0.005-0.393,0.057-0.556,0.191
		l-4.675,3.944c-2.391,1.093-9.996,4.57-10.873,4.978c-21.775-7.911-54.994-31.516-67.146-40.911
		c-4.65-3.595-11.335-2.741-14.929,1.908c-3.596,4.648-2.742,11.332,1.906,14.929c4.739,3.666,42.595,32.576,71.647,43.6
		l0.02,71.041c0,5.594,1.899,10.599,4.986,14.816l-14.248,114.143c-0.751,6.04,2.829,11.608,8.311,13.615h-23.632
		c-13.821,0-25.067,11.244-25.067,25.063c0,8.681,4.43,16.49,11.397,21.01v7.937H85.939c-13.821,0-25.067,11.244-25.067,25.065
		c0,8.493,4.321,17.411,11.397,21.897V476h20.13v-45.26c0,0-11.397-1.006-11.397-7.588c0-2.722,2.215-4.936,4.938-4.936h118.265
		V377.25c0,0-11.398-3.1-11.398-8.108c0-2.72,2.217-4.932,4.938-4.932h116.512c2.722,0,4.938,2.212,4.938,4.932
		c0,5.009-11.399,8.108-11.399,8.108v40.968h118.266c2.723,0,4.938,2.214,4.938,4.936c0,6.582-11.398,7.588-11.398,7.588V476h20.131
		v-30.95c7.075-4.486,11.397-13.404,11.397-21.897C451.128,409.332,439.882,398.087,426.061,398.087z M230.198,344.078
		c4.36-1.602,7.697-5.513,8.313-10.438l12.912-103.437c1.537,0.216,3.067,0.329,4.574,0.329c1.508,0,3.04-0.113,4.579-0.329
		l12.913,103.437c0.616,4.926,3.954,8.837,8.314,10.438H230.198z"/>
	<path d="M263.532,396.58h-4.003c-0.787,0-1.563,0.194-2.257,0.566l-11.061,5.92c-1.938,1.037-2.92,3.263-2.38,5.394l0.37,1.459
		c0.362,1.429,1.364,2.61,2.713,3.204c1.35,0.593,2.897,0.53,4.195-0.172l4.495-2.425v43.314c0,2.642,2.142,4.783,4.783,4.783h3.144
		c2.641,0,4.782-2.142,4.782-4.783v-52.478C268.314,398.72,266.173,396.58,263.532,396.58z"/>
	<path d="M255.997,101.815c15.571,0,27.188-14.506,27.453-38.832C283.618,46.101,275.581,36,255.997,36
		c-19.581,0-27.62,10.101-27.449,26.982C228.812,87.309,240.428,101.815,255.997,101.815z"/>
</g>
</svg>
