<?xml version="1.0" encoding="utf-8"?>
<!-- Generator: Adobe Illustrator 16.0.0, SVG Export Plug-In . SVG Version: 6.00 Build 0)  -->
<!DOCTYPE svg PUBLIC "-//W3C//DTD SVG 1.1//EN" "http://www.w3.org/Graphics/SVG/1.1/DTD/svg11.dtd">
<svg version="1.1" id="Layer_1" xmlns="http://www.w3.org/2000/svg" xmlns:xlink="http://www.w3.org/1999/xlink" x="0px" y="0px"
	 width="512px" height="512px" viewBox="0 0 512 512" enable-background="new 0 0 512 512" xml:space="preserve">
<path d="M434.781,436.842c-0.585-3.45-1.193-6.897-1.823-10.347c-7.226-39.39-19.038-102.017-64.124-135.877
	c3.326-22.053,5.029-56.337,5.029-107.331C373.863,101.882,321.074,36,256,36c-44.375,0-72.592,31.445-72.592,31.445
	c-27.487,27.001-45.271,68.793-45.271,116.003c0,50.848,1.779,85.142,5.019,107.114c-45.29,33.525-56.883,96.658-64.115,136.073
	c-0.628,3.442-1.236,6.889-1.821,10.334c-3.093,18.202,9.156,35.461,27.355,38.553c1.896,0.323,3.777,0.478,5.638,0.478
	l116.984-0.03l0.003-0.024l174.585-0.078c1.86,0,3.743-0.153,5.636-0.479C425.622,472.3,437.872,455.044,434.781,436.842z
	 M256.034,360.404l-62.152-31.665l32.238-50.825c8.74,4.458,20.255,6.987,29.88,6.987c9.664,0,20.979-2.579,29.75-7.074
	l32.157,50.924L256.034,360.404z M256,262.901c-59.158,0-84.628-80.046-79.546-105.039c65.035-56.563,122.615-52.656,122.615-52.656
	s10.323,32.059,36.872,70.74C331.275,214.071,292.648,262.901,256,262.901z"/>
</svg>
